<?xml version="1.0" encoding="UTF-8" standalone="no"?>
<svg
   xmlns:dc="http://purl.org/dc/elements/1.1/"
   xmlns:cc="http://creativecommons.org/ns#"
   xmlns:rdf="http://www.w3.org/1999/02/22-rdf-syntax-ns#"
   xmlns:svg="http://www.w3.org/2000/svg"
   xmlns="http://www.w3.org/2000/svg"
   xmlns:sodipodi="http://sodipodi.sourceforge.net/DTD/sodipodi-0.dtd"
   xmlns:inkscape="http://www.inkscape.org/namespaces/inkscape"
   inkscape:version="1.0rc1 (09960d6, 2020-04-09)"
   sodipodi:docname="brand.svg"
   id="svg2751"
   version="1.1"
   fill="none"
   viewBox="0 0 200 86"
   height="86"
   width="200">
  <metadata
     id="metadata2757">
    <rdf:RDF>
      <cc:Work
         rdf:about="">
        <dc:format>image/svg+xml</dc:format>
        <dc:type
           rdf:resource="http://purl.org/dc/dcmitype/StillImage" />
        <dc:title></dc:title>
      </cc:Work>
    </rdf:RDF>
  </metadata>
  <defs
     id="defs2755" />
  <sodipodi:namedview
     inkscape:current-layer="svg2751"
     inkscape:window-maximized="0"
     inkscape:window-y="23"
     inkscape:window-x="0"
     inkscape:cy="41.577778"
     inkscape:cx="95.644444"
     inkscape:zoom="5.625"
     showgrid="false"
     id="namedview2753"
     inkscape:window-height="755"
     inkscape:window-width="1280"
     inkscape:pageshadow="2"
     inkscape:pageopacity="0"
     guidetolerance="10"
     gridtolerance="10"
     objecttolerance="10"
     borderopacity="1"
     bordercolor="#666666"
     pagecolor="#ffffff" />
  <path
     id="path2703"
     fill="#147D64"
     d="M67.9468 34.392C68.4161 34.3067 68.7254 34.184 68.8748 34.024C69.0241 33.8533 69.0988 33.5387 69.0988 33.08L69.1148 26.36C69.1148 26.0187 69.0721 25.7893 68.9868 25.672C68.9121 25.5547 68.7574 25.496 68.5228 25.496C68.4161 25.496 68.3094 25.5013 68.2028 25.512C68.0961 25.5227 68.0214 25.528 67.9788 25.528L67.9468 25.464L68.0588 24.76C68.1868 24.7707 68.4268 24.7813 68.7788 24.792C69.1308 24.8027 69.4828 24.808 69.8348 24.808C70.1654 24.808 70.5388 24.8027 70.9548 24.792C71.3814 24.7707 71.6801 24.7547 71.8508 24.744C72.9601 24.744 73.8081 24.9893 74.3948 25.48C74.9814 25.9707 75.2748 26.6747 75.2748 27.592C75.2748 28.1893 75.0988 28.76 74.7468 29.304C74.4054 29.8373 73.9521 30.2693 73.3868 30.6C72.8214 30.9307 72.2294 31.096 71.6108 31.096H70.2668L70.2348 32.664C70.2348 33.176 70.2508 33.544 70.2828 33.768C70.3148 33.9813 70.3734 34.1253 70.4588 34.2C70.5548 34.264 70.7148 34.296 70.9388 34.296C71.1201 34.296 71.2908 34.2907 71.4508 34.28C71.6214 34.2693 71.7388 34.2587 71.8028 34.248L71.8348 34.312L71.6908 35.048C71.5841 35.0373 71.3868 35.0267 71.0988 35.016C70.8214 35.0053 70.5281 35 70.2188 35C69.7921 35 69.2908 35.016 68.7148 35.048C68.1494 35.08 67.8561 35.1067 67.8348 35.128L67.9468 34.392ZM71.9948 30.392C72.6348 30.2853 73.1148 30.024 73.4348 29.608C73.7654 29.192 73.9308 28.6213 73.9308 27.896C73.9308 27.0747 73.6854 26.4773 73.1948 26.104C72.7148 25.72 71.9574 25.528 70.9228 25.528C70.7308 25.528 70.6134 25.5387 70.5708 25.56C70.5281 25.5813 70.5014 25.6453 70.4908 25.752C70.3948 27.1067 70.3308 28.5733 70.2988 30.152L71.9948 30.392ZM78.6005 35.192C77.9925 35.192 77.4539 35.0427 76.9845 34.744C76.5152 34.4453 76.1472 34.0293 75.8805 33.496C75.6245 32.952 75.4965 32.3333 75.4965 31.64C75.4965 30.8933 75.6565 30.2107 75.9765 29.592C76.3072 28.9627 76.7552 28.472 77.3205 28.12C77.8859 27.7573 78.5152 27.576 79.2085 27.576C79.8059 27.576 80.3392 27.7253 80.8085 28.024C81.2885 28.3227 81.6565 28.744 81.9125 29.288C82.1792 29.8213 82.3125 30.4347 82.3125 31.128C82.3125 31.8747 82.1472 32.5627 81.8165 33.192C81.4965 33.8107 81.0539 34.3013 80.4885 34.664C79.9232 35.016 79.2939 35.192 78.6005 35.192ZM79.0485 34.408C79.6459 34.408 80.1205 34.168 80.4725 33.688C80.8245 33.1973 81.0005 32.536 81.0005 31.704C81.0005 31.0747 80.9045 30.5147 80.7125 30.024C80.5205 29.5227 80.2485 29.1333 79.8965 28.856C79.5552 28.5787 79.1659 28.44 78.7285 28.44C78.1312 28.44 77.6565 28.6853 77.3045 29.176C76.9525 29.6667 76.7765 30.3333 76.7765 31.176C76.7765 31.8053 76.8725 32.3653 77.0645 32.856C77.2565 33.3467 77.5232 33.7307 77.8645 34.008C78.2059 34.2747 78.6005 34.408 79.0485 34.408ZM83.3853 34.536C83.6839 34.4507 83.8919 34.344 84.0093 34.216C84.1373 34.088 84.2119 33.9333 84.2333 33.752C84.2653 33.5707 84.2813 33.2667 84.2813 32.84V24.984C84.2813 24.6533 84.2439 24.4293 84.1693 24.312C84.0946 24.1947 83.9399 24.136 83.7053 24.136C83.6519 24.136 83.5293 24.1467 83.3373 24.168L83.2893 24.136L83.3533 23.592C84.2493 23.464 85.0386 23.3093 85.7213 23.128L85.8173 23.336C85.6999 23.5173 85.5933 24.6587 85.4973 26.76C85.4119 28.8613 85.3693 31.0853 85.3693 33.432C85.3693 33.752 85.4119 33.9813 85.4973 34.12C85.5826 34.2587 85.7266 34.328 85.9293 34.328L86.4893 34.296L86.5213 34.36L86.3933 35.048C85.6893 35.016 85.2146 35 84.9693 35C84.6066 35 84.0573 35.064 83.3213 35.192L83.3853 34.536ZM87.3715 38.856C87.2862 38.856 87.1475 38.728 86.9555 38.472C86.7635 38.2267 86.6675 38.0507 86.6675 37.944L86.7475 37.832C87.3449 37.832 87.8995 37.5813 88.4115 37.08C88.9342 36.5893 89.3822 35.896 89.7555 35C88.9342 32.3973 88.2729 30.4347 87.7715 29.112C87.6755 28.8453 87.5369 28.6533 87.3555 28.536C87.1849 28.4187 86.9609 28.3547 86.6835 28.344L86.6515 28.28L86.7475 27.752L88.0755 27.768C88.4702 27.768 88.8595 27.752 89.2435 27.72C89.6382 27.688 89.8889 27.6667 89.9955 27.656L90.0275 27.736L89.9315 28.232C89.5689 28.2427 89.3235 28.28 89.1955 28.344C89.0782 28.3973 89.0195 28.4987 89.0195 28.648C89.0195 28.8187 89.1209 29.2613 89.3235 29.976C89.5369 30.6907 89.7555 31.4053 89.9795 32.12C90.2035 32.824 90.3529 33.2827 90.4275 33.496H90.4915C91.7182 30.5627 92.3315 28.968 92.3315 28.712C92.3315 28.4347 92.1289 28.296 91.7235 28.296H90.9875L90.9555 28.232L91.0515 27.704C91.1475 27.7147 91.3609 27.7307 91.6915 27.752C92.0222 27.7627 92.3529 27.768 92.6835 27.768L94.0435 27.752L93.9315 28.344C93.6969 28.3867 93.5155 28.472 93.3875 28.6C93.2702 28.7173 93.1529 28.936 93.0355 29.256L91.0035 34.12C90.4489 35.464 89.9955 36.4613 89.6435 37.112C89.2915 37.7627 88.9449 38.216 88.6035 38.472C88.2622 38.7387 87.8515 38.8667 87.3715 38.856ZM101.224 28.232C101.021 28.264 100.562 28.312 99.8477 28.376L99.7837 28.456C100.21 28.9253 100.424 29.4693 100.424 30.088C100.424 30.6 100.28 31.0747 99.9917 31.512C99.7143 31.9493 99.3357 32.296 98.8557 32.552C98.3757 32.7973 97.8477 32.92 97.2717 32.92C96.9623 32.92 96.6637 32.8773 96.3757 32.792C96.1303 32.9307 95.9543 33.0587 95.8477 33.176C95.741 33.2933 95.6877 33.4107 95.6877 33.528C95.6877 33.7733 95.853 33.944 96.1837 34.04C96.5143 34.136 97.0317 34.2267 97.7357 34.312C98.429 34.3973 98.989 34.488 99.4157 34.584C99.8423 34.6693 100.21 34.8293 100.52 35.064C100.829 35.2987 100.984 35.624 100.984 36.04C100.984 36.5093 100.792 36.9627 100.408 37.4C100.034 37.8373 99.5383 38.1893 98.9197 38.456C98.3117 38.7333 97.6823 38.872 97.0317 38.872C96.2743 38.872 95.677 38.68 95.2397 38.296C94.813 37.9227 94.5997 37.4053 94.5997 36.744C94.749 36.552 94.9623 36.328 95.2397 36.072C95.5277 35.816 95.8423 35.56 96.1837 35.304V35.208C95.629 35.112 95.2023 34.9307 94.9037 34.664C94.605 34.3973 94.4503 34.056 94.4397 33.64C94.8557 33.2453 95.3037 32.904 95.7837 32.616V32.552C95.4103 32.3387 95.117 32.056 94.9037 31.704C94.701 31.3413 94.5997 30.936 94.5997 30.488C94.5997 29.9653 94.733 29.4853 94.9997 29.048C95.277 28.6 95.6397 28.2427 96.0877 27.976C96.5463 27.7093 97.0423 27.576 97.5757 27.576C97.821 27.576 98.125 27.608 98.4877 27.672C98.7543 27.7253 98.973 27.752 99.1437 27.752C99.6237 27.6987 100.36 27.5387 101.352 27.272L101.4 27.336L101.224 28.232ZM97.6397 32.216C98.1303 32.216 98.5143 32.0613 98.7917 31.752C99.0797 31.4427 99.2237 31.016 99.2237 30.472C99.2237 29.8533 99.053 29.352 98.7117 28.968C98.3703 28.584 97.9277 28.392 97.3837 28.392C96.893 28.392 96.5037 28.552 96.2157 28.872C95.9383 29.192 95.7997 29.624 95.7997 30.168C95.7997 30.776 95.9703 31.272 96.3117 31.656C96.653 32.0293 97.0957 32.216 97.6397 32.216ZM96.8717 35.336C96.5517 35.56 96.3063 35.8053 96.1357 36.072C95.965 36.3493 95.8797 36.6213 95.8797 36.888C95.8797 37.2507 96.0343 37.5387 96.3437 37.752C96.653 37.976 97.0637 38.088 97.5757 38.088C97.981 38.088 98.365 38.0133 98.7277 37.864C99.101 37.7253 99.3997 37.5333 99.6237 37.288C99.8477 37.0427 99.9597 36.7813 99.9597 36.504C99.9597 36.2907 99.8797 36.12 99.7197 35.992C99.5597 35.864 99.261 35.752 98.8237 35.656C98.397 35.56 97.7463 35.4533 96.8717 35.336ZM102.135 34.536C102.434 34.4507 102.642 34.344 102.759 34.216C102.887 34.088 102.962 33.9333 102.983 33.752C103.015 33.5707 103.031 33.2667 103.031 32.84V24.984C103.031 24.6533 102.994 24.4293 102.919 24.312C102.845 24.1947 102.69 24.136 102.455 24.136C102.402 24.136 102.279 24.1467 102.087 24.168L102.039 24.136L102.103 23.592C102.999 23.464 103.789 23.3093 104.471 23.128L104.567 23.336C104.45 23.5173 104.343 24.6587 104.247 26.76C104.162 28.8613 104.119 31.0853 104.119 33.432C104.119 33.752 104.162 33.9813 104.247 34.12C104.333 34.2587 104.477 34.328 104.679 34.328L105.239 34.296L105.271 34.36L105.143 35.048C104.439 35.016 103.965 35 103.719 35C103.357 35 102.807 35.064 102.071 35.192L102.135 34.536ZM109.226 35.192C108.618 35.192 108.079 35.0427 107.61 34.744C107.14 34.4453 106.772 34.0293 106.506 33.496C106.25 32.952 106.122 32.3333 106.122 31.64C106.122 30.8933 106.282 30.2107 106.602 29.592C106.932 28.9627 107.38 28.472 107.946 28.12C108.511 27.7573 109.14 27.576 109.834 27.576C110.431 27.576 110.964 27.7253 111.434 28.024C111.914 28.3227 112.282 28.744 112.538 29.288C112.804 29.8213 112.938 30.4347 112.938 31.128C112.938 31.8747 112.772 32.5627 112.442 33.192C112.122 33.8107 111.679 34.3013 111.114 34.664C110.548 35.016 109.919 35.192 109.226 35.192ZM109.674 34.408C110.271 34.408 110.746 34.168 111.098 33.688C111.45 33.1973 111.626 32.536 111.626 31.704C111.626 31.0747 111.53 30.5147 111.338 30.024C111.146 29.5227 110.874 29.1333 110.522 28.856C110.18 28.5787 109.791 28.44 109.354 28.44C108.756 28.44 108.282 28.6853 107.93 29.176C107.578 29.6667 107.402 30.3333 107.402 31.176C107.402 31.8053 107.498 32.3653 107.69 32.856C107.882 33.3467 108.148 33.7307 108.49 34.008C108.831 34.2747 109.226 34.408 109.674 34.408ZM116.81 35.192C116.085 35.192 115.573 35.048 115.274 34.76C114.976 34.4613 114.826 33.96 114.826 33.256V29.32C114.826 29.032 114.762 28.8293 114.634 28.712C114.506 28.5947 114.266 28.5307 113.914 28.52L113.85 28.424L113.93 27.944C114.24 27.7947 114.538 27.6133 114.826 27.4C115.125 27.176 115.365 26.984 115.546 26.824C115.738 26.6533 115.861 26.5413 115.914 26.488L116.234 26.616C116.224 26.6693 116.208 26.7973 116.186 27C116.165 27.2027 116.138 27.4747 116.106 27.816L118.458 27.768L118.506 27.816L118.362 28.664L116.042 28.616C115.968 29.7893 115.93 31.1227 115.93 32.616C115.93 33.16 116.021 33.544 116.202 33.768C116.394 33.992 116.72 34.104 117.178 34.104C117.338 34.104 117.498 34.0827 117.658 34.04C117.818 33.9973 117.952 33.9547 118.058 33.912C118.165 33.8587 118.234 33.8267 118.266 33.816L118.426 34.232C118.362 34.2853 118.224 34.3867 118.01 34.536C117.808 34.6853 117.584 34.8347 117.338 34.984C117.104 35.1227 116.928 35.192 116.81 35.192ZM119.564 34.536C119.884 34.4507 120.113 34.328 120.252 34.168C120.39 33.9973 120.46 33.7733 120.46 33.496V29.432C120.46 28.856 120.262 28.568 119.868 28.568C119.793 28.568 119.713 28.5787 119.628 28.6C119.542 28.6107 119.489 28.6213 119.468 28.632L119.532 28.04C119.98 27.976 120.438 27.8907 120.908 27.784C121.388 27.6773 121.697 27.608 121.836 27.576L121.916 27.768C121.82 27.992 121.734 28.68 121.66 29.832C121.585 30.9733 121.548 32.1733 121.548 33.432C121.548 33.7413 121.59 33.9707 121.676 34.12C121.761 34.2587 121.905 34.328 122.108 34.328C122.225 34.328 122.337 34.3227 122.444 34.312C122.55 34.3013 122.625 34.296 122.668 34.296L122.7 34.36L122.572 35.048C122.476 35.0373 122.294 35.0267 122.028 35.016C121.761 35.0053 121.468 35 121.148 35C120.87 35 120.55 35.0267 120.188 35.08C119.836 35.1333 119.606 35.1707 119.5 35.192L119.564 34.536ZM120.908 25.688C120.662 25.688 120.47 25.608 120.332 25.448C120.193 25.288 120.124 25.096 120.124 24.872C120.124 24.616 120.214 24.3973 120.396 24.216C120.577 24.024 120.801 23.928 121.068 23.928C121.313 23.928 121.505 24.008 121.644 24.168C121.782 24.328 121.852 24.52 121.852 24.744C121.852 25 121.761 25.224 121.58 25.416C121.398 25.5973 121.174 25.688 120.908 25.688ZM126.047 35.192C125.706 35.192 125.391 35.1653 125.103 35.112C124.826 35.0693 124.607 35.0213 124.447 34.968C124.287 34.9147 124.186 34.8773 124.143 34.856L124.095 34.744C124.127 34.584 124.164 34.2533 124.207 33.752C124.25 33.2507 124.276 32.8667 124.287 32.6L124.847 32.52C124.847 33.224 124.964 33.72 125.199 34.008C125.434 34.296 125.834 34.44 126.399 34.44C126.804 34.44 127.146 34.3493 127.423 34.168C127.7 33.9867 127.839 33.7627 127.839 33.496C127.839 33.2293 127.711 32.9893 127.455 32.776C127.21 32.552 126.719 32.2427 125.983 31.848C125.375 31.5387 124.932 31.224 124.655 30.904C124.378 30.584 124.239 30.232 124.239 29.848C124.239 29.4213 124.367 29.0373 124.623 28.696C124.879 28.344 125.231 28.072 125.679 27.88C126.127 27.6773 126.628 27.576 127.183 27.576C127.439 27.576 127.684 27.5973 127.919 27.64C128.154 27.672 128.346 27.7093 128.495 27.752C128.644 27.7947 128.74 27.8213 128.783 27.832L128.815 27.912C128.794 28.0187 128.746 28.264 128.671 28.648C128.596 29.0213 128.543 29.4267 128.511 29.864L127.919 29.912C127.919 29.88 127.924 29.816 127.935 29.72C127.946 29.624 127.951 29.5333 127.951 29.448C127.951 29.064 127.844 28.7867 127.631 28.616C127.428 28.4347 127.098 28.344 126.639 28.344C126.276 28.344 125.967 28.4293 125.711 28.6C125.466 28.7707 125.343 28.9787 125.343 29.224C125.343 29.48 125.45 29.72 125.663 29.944C125.887 30.168 126.244 30.408 126.735 30.664C127.599 31.1227 128.186 31.512 128.495 31.832C128.815 32.1413 128.975 32.4987 128.975 32.904C128.975 33.3093 128.842 33.688 128.575 34.04C128.308 34.392 127.946 34.6747 127.487 34.888C127.039 35.0907 126.559 35.192 126.047 35.192ZM133.045 35.192C132.319 35.192 131.807 35.048 131.509 34.76C131.21 34.4613 131.061 33.96 131.061 33.256V29.32C131.061 29.032 130.997 28.8293 130.869 28.712C130.741 28.5947 130.501 28.5307 130.149 28.52L130.085 28.424L130.165 27.944C130.474 27.7947 130.773 27.6133 131.061 27.4C131.359 27.176 131.599 26.984 131.781 26.824C131.973 26.6533 132.095 26.5413 132.149 26.488L132.469 26.616C132.458 26.6693 132.442 26.7973 132.421 27C132.399 27.2027 132.373 27.4747 132.341 27.816L134.693 27.768L134.741 27.816L134.597 28.664L132.277 28.616C132.202 29.7893 132.165 31.1227 132.165 32.616C132.165 33.16 132.255 33.544 132.437 33.768C132.629 33.992 132.954 34.104 133.413 34.104C133.573 34.104 133.733 34.0827 133.893 34.04C134.053 33.9973 134.186 33.9547 134.293 33.912C134.399 33.8587 134.469 33.8267 134.501 33.816L134.661 34.232C134.597 34.2853 134.458 34.3867 134.245 34.536C134.042 34.6853 133.818 34.8347 133.573 34.984C133.338 35.1227 133.162 35.192 133.045 35.192Z" />
  <path
     id="path2705"
     fill="#147D64"
     d="M66.8268 38.424H135.029V39.304H66.8268V38.424Z" />
  <path
     id="path2707"
     fill="#147D64"
     d="M28.5145 51.835V52.625H25.0745V55.005H27.8595V55.765H25.0745V58.21H28.5145V59H24.0995V51.835H28.5145ZM30.955 56.405L29.25 53.935H30.105C30.1784 53.935 30.2317 53.9467 30.265 53.97C30.2984 53.9933 30.3284 54.0267 30.355 54.07L31.595 55.97C31.625 55.8767 31.6684 55.7833 31.725 55.69L32.815 54.09C32.8484 54.0433 32.8817 54.0067 32.915 53.98C32.9484 53.95 32.99 53.935 33.04 53.935H33.86L32.155 56.355L33.93 59H33.075C33.0017 59 32.9434 58.9817 32.9 58.945C32.86 58.905 32.8267 58.8617 32.8 58.815L31.525 56.83C31.5017 56.9267 31.4667 57.0133 31.42 57.09L30.24 58.815C30.2067 58.8617 30.17 58.905 30.13 58.945C30.0934 58.9817 30.0417 59 29.975 59H29.18L30.955 56.405ZM34.8091 60.715V53.935H35.3391C35.4658 53.935 35.5458 53.9967 35.5791 54.12L35.6541 54.72C35.8708 54.4567 36.1174 54.245 36.3941 54.085C36.6741 53.925 36.9958 53.845 37.3591 53.845C37.6491 53.845 37.9124 53.9017 38.1491 54.015C38.3858 54.125 38.5874 54.29 38.7541 54.51C38.9208 54.7267 39.0491 54.9967 39.1391 55.32C39.2291 55.6433 39.2741 56.015 39.2741 56.435C39.2741 56.8083 39.2241 57.1567 39.1241 57.48C39.0241 57.8 38.8808 58.0783 38.6941 58.315C38.5074 58.5483 38.2774 58.7333 38.0041 58.87C37.7341 59.0033 37.4291 59.07 37.0891 59.07C36.7758 59.07 36.5074 59.0183 36.2841 58.915C36.0641 58.8117 35.8691 58.665 35.6991 58.475V60.715H34.8091ZM37.0641 54.565C36.7741 54.565 36.5191 54.6317 36.2991 54.765C36.0824 54.8983 35.8824 55.0867 35.6991 55.33V57.78C35.8624 58 36.0408 58.155 36.2341 58.245C36.4308 58.335 36.6491 58.38 36.8891 58.38C37.3591 58.38 37.7208 58.2117 37.9741 57.875C38.2274 57.5383 38.3541 57.0583 38.3541 56.435C38.3541 56.105 38.3241 55.8217 38.2641 55.585C38.2074 55.3483 38.1241 55.155 38.0141 55.005C37.9041 54.8517 37.7691 54.74 37.6091 54.67C37.4491 54.6 37.2674 54.565 37.0641 54.565ZM44.0467 59H43.6517C43.565 59 43.495 58.9867 43.4417 58.96C43.3883 58.9333 43.3533 58.8767 43.3367 58.79L43.2367 58.32C43.1033 58.44 42.9733 58.5483 42.8467 58.645C42.72 58.7383 42.5867 58.8183 42.4467 58.885C42.3067 58.9483 42.1567 58.9967 41.9967 59.03C41.84 59.0633 41.665 59.08 41.4717 59.08C41.275 59.08 41.09 59.0533 40.9167 59C40.7467 58.9433 40.5983 58.86 40.4717 58.75C40.345 58.64 40.2433 58.5017 40.1667 58.335C40.0933 58.165 40.0567 57.965 40.0567 57.735C40.0567 57.535 40.1117 57.3433 40.2217 57.16C40.3317 56.9733 40.5083 56.8083 40.7517 56.665C40.9983 56.5217 41.32 56.405 41.7167 56.315C42.1133 56.2217 42.5983 56.1683 43.1717 56.155V55.76C43.1717 55.3667 43.0867 55.07 42.9167 54.87C42.75 54.6667 42.5017 54.565 42.1717 54.565C41.955 54.565 41.7717 54.5933 41.6217 54.65C41.475 54.7033 41.3467 54.765 41.2367 54.835C41.13 54.9017 41.0367 54.9633 40.9567 55.02C40.88 55.0733 40.8033 55.1 40.7267 55.1C40.6667 55.1 40.6133 55.085 40.5667 55.055C40.5233 55.0217 40.4883 54.9817 40.4617 54.935L40.3017 54.65C40.5817 54.38 40.8833 54.1783 41.2067 54.045C41.53 53.9117 41.8883 53.845 42.2817 53.845C42.565 53.845 42.8167 53.8917 43.0367 53.985C43.2567 54.0783 43.4417 54.2083 43.5917 54.375C43.7417 54.5417 43.855 54.7433 43.9317 54.98C44.0083 55.2167 44.0467 55.4767 44.0467 55.76V59ZM41.7367 58.455C41.8933 58.455 42.0367 58.44 42.1667 58.41C42.2967 58.3767 42.4183 58.3317 42.5317 58.275C42.6483 58.215 42.7583 58.1433 42.8617 58.06C42.9683 57.9767 43.0717 57.8817 43.1717 57.775V56.72C42.7617 56.7333 42.4133 56.7667 42.1267 56.82C41.84 56.87 41.6067 56.9367 41.4267 57.02C41.2467 57.1033 41.115 57.2017 41.0317 57.315C40.9517 57.4283 40.9117 57.555 40.9117 57.695C40.9117 57.8283 40.9333 57.9433 40.9767 58.04C41.02 58.1367 41.0783 58.2167 41.1517 58.28C41.225 58.34 41.3117 58.385 41.4117 58.415C41.5117 58.4417 41.62 58.455 41.7367 58.455ZM45.395 59V53.935H45.925C46.0517 53.935 46.1317 53.9967 46.165 54.12L46.235 54.67C46.455 54.4267 46.7 54.23 46.97 54.08C47.2434 53.93 47.5584 53.855 47.915 53.855C48.1917 53.855 48.435 53.9017 48.645 53.995C48.8584 54.085 49.035 54.215 49.175 54.385C49.3184 54.5517 49.4267 54.7533 49.5 54.99C49.5734 55.2267 49.61 55.4883 49.61 55.775V59H48.72V55.775C48.72 55.3917 48.6317 55.095 48.455 54.885C48.2817 54.6717 48.015 54.565 47.655 54.565C47.3917 54.565 47.145 54.6283 46.915 54.755C46.6884 54.8817 46.4784 55.0533 46.285 55.27V59H45.395ZM54.5167 59C54.39 59 54.31 58.9383 54.2767 58.815L54.1967 58.2C53.98 58.4633 53.7317 58.675 53.4517 58.835C53.175 58.9917 52.8567 59.07 52.4967 59.07C52.2067 59.07 51.9433 59.015 51.7067 58.905C51.47 58.7917 51.2683 58.6267 51.1017 58.41C50.935 58.1933 50.8067 57.9233 50.7167 57.6C50.6267 57.2767 50.5817 56.905 50.5817 56.485C50.5817 56.1117 50.6317 55.765 50.7317 55.445C50.8317 55.1217 50.975 54.8417 51.1617 54.605C51.3517 54.3683 51.5817 54.1833 51.8517 54.05C52.1217 53.9133 52.4283 53.845 52.7717 53.845C53.0817 53.845 53.3467 53.8983 53.5667 54.005C53.7867 54.1083 53.9833 54.255 54.1567 54.445V51.635H55.0467V59H54.5167ZM52.7917 58.35C53.0817 58.35 53.335 58.2833 53.5517 58.15C53.7717 58.0167 53.9733 57.8283 54.1567 57.585V55.135C53.9933 54.915 53.8133 54.7617 53.6167 54.675C53.4233 54.585 53.2083 54.54 52.9717 54.54C52.4983 54.54 52.135 54.7083 51.8817 55.045C51.6283 55.3817 51.5017 55.8617 51.5017 56.485C51.5017 56.815 51.53 57.0983 51.5867 57.335C51.6433 57.5683 51.7267 57.7617 51.8367 57.915C51.9467 58.065 52.0817 58.175 52.2417 58.245C52.4017 58.315 52.585 58.35 52.7917 58.35ZM57.5276 53.935V59H56.6376V53.935H57.5276ZM57.7276 52.345C57.7276 52.4317 57.7093 52.5133 57.6726 52.59C57.6393 52.6633 57.5926 52.73 57.5326 52.79C57.476 52.8467 57.4093 52.8917 57.3326 52.925C57.256 52.9583 57.1743 52.975 57.0876 52.975C57.001 52.975 56.9193 52.9583 56.8426 52.925C56.7693 52.8917 56.7026 52.8467 56.6426 52.79C56.586 52.73 56.541 52.6633 56.5076 52.59C56.4743 52.5133 56.4576 52.4317 56.4576 52.345C56.4576 52.2583 56.4743 52.1767 56.5076 52.1C56.541 52.02 56.586 51.9517 56.6426 51.895C56.7026 51.835 56.7693 51.7883 56.8426 51.755C56.9193 51.7217 57.001 51.705 57.0876 51.705C57.1743 51.705 57.256 51.7217 57.3326 51.755C57.4093 51.7883 57.476 51.835 57.5326 51.895C57.5926 51.9517 57.6393 52.02 57.6726 52.1C57.7093 52.1767 57.7276 52.2583 57.7276 52.345ZM59.0962 59V53.935H59.6262C59.7529 53.935 59.8329 53.9967 59.8662 54.12L59.9362 54.67C60.1562 54.4267 60.4012 54.23 60.6712 54.08C60.9445 53.93 61.2595 53.855 61.6162 53.855C61.8929 53.855 62.1362 53.9017 62.3462 53.995C62.5595 54.085 62.7362 54.215 62.8762 54.385C63.0195 54.5517 63.1279 54.7533 63.2012 54.99C63.2745 55.2267 63.3112 55.4883 63.3112 55.775V59H62.4212V55.775C62.4212 55.3917 62.3329 55.095 62.1562 54.885C61.9829 54.6717 61.7162 54.565 61.3562 54.565C61.0929 54.565 60.8462 54.6283 60.6162 54.755C60.3895 54.8817 60.1795 55.0533 59.9862 55.27V59H59.0962ZM66.3579 53.85C66.5779 53.85 66.7829 53.875 66.9729 53.925C67.1662 53.9717 67.3412 54.0417 67.4979 54.135H68.8729V54.465C68.8729 54.575 68.8029 54.645 68.6629 54.675L68.0879 54.755C68.2012 54.9717 68.2579 55.2133 68.2579 55.48C68.2579 55.7267 68.2095 55.9517 68.1129 56.155C68.0195 56.355 67.8879 56.5267 67.7179 56.67C67.5512 56.8133 67.3512 56.9233 67.1179 57C66.8879 57.0767 66.6345 57.115 66.3579 57.115C66.1212 57.115 65.8979 57.0867 65.6879 57.03C65.5812 57.0967 65.4995 57.1683 65.4429 57.245C65.3895 57.3217 65.3629 57.3967 65.3629 57.47C65.3629 57.59 65.4112 57.6817 65.5079 57.745C65.6045 57.805 65.7329 57.8483 65.8929 57.875C66.0529 57.9017 66.2345 57.9183 66.4379 57.925C66.6412 57.9317 66.8479 57.9433 67.0579 57.96C67.2712 57.9733 67.4795 57.9983 67.6829 58.035C67.8862 58.0717 68.0679 58.1317 68.2279 58.215C68.3879 58.2983 68.5162 58.4133 68.6129 58.56C68.7095 58.7067 68.7579 58.8967 68.7579 59.13C68.7579 59.3467 68.7029 59.5567 68.5929 59.76C68.4862 59.9633 68.3312 60.1433 68.1279 60.3C67.9245 60.46 67.6762 60.5867 67.3829 60.68C67.0895 60.7767 66.7579 60.825 66.3879 60.825C66.0179 60.825 65.6929 60.7883 65.4129 60.715C65.1362 60.6417 64.9062 60.5433 64.7229 60.42C64.5395 60.2967 64.4012 60.1533 64.3079 59.99C64.2179 59.83 64.1729 59.6617 64.1729 59.485C64.1729 59.235 64.2512 59.0233 64.4079 58.85C64.5679 58.6733 64.7862 58.5333 65.0629 58.43C64.9195 58.3633 64.8045 58.275 64.7179 58.165C64.6345 58.0517 64.5929 57.9017 64.5929 57.715C64.5929 57.6417 64.6062 57.5667 64.6329 57.49C64.6595 57.41 64.6995 57.3317 64.7529 57.255C64.8095 57.1783 64.8779 57.105 64.9579 57.035C65.0379 56.965 65.1312 56.9033 65.2379 56.85C64.9879 56.71 64.7912 56.525 64.6479 56.295C64.5079 56.0617 64.4379 55.79 64.4379 55.48C64.4379 55.2333 64.4845 55.01 64.5779 54.81C64.6745 54.6067 64.8079 54.435 64.9779 54.295C65.1479 54.1517 65.3495 54.0417 65.5829 53.965C65.8195 53.8883 66.0779 53.85 66.3579 53.85ZM67.9379 59.275C67.9379 59.1483 67.9029 59.0467 67.8329 58.97C67.7629 58.8933 67.6679 58.835 67.5479 58.795C67.4279 58.7517 67.2895 58.72 67.1329 58.7C66.9762 58.68 66.8112 58.6667 66.6379 58.66C66.4645 58.65 66.2879 58.64 66.1079 58.63C65.9279 58.62 65.7562 58.6017 65.5929 58.575C65.4029 58.665 65.2479 58.775 65.1279 58.905C65.0112 59.035 64.9529 59.19 64.9529 59.37C64.9529 59.4833 64.9812 59.5883 65.0379 59.685C65.0979 59.785 65.1879 59.87 65.3079 59.94C65.4279 60.0133 65.5779 60.07 65.7579 60.11C65.9412 60.1533 66.1562 60.175 66.4029 60.175C66.6429 60.175 66.8579 60.1533 67.0479 60.11C67.2379 60.0667 67.3979 60.005 67.5279 59.925C67.6612 59.845 67.7629 59.75 67.8329 59.64C67.9029 59.53 67.9379 59.4083 67.9379 59.275ZM66.3579 56.525C66.5379 56.525 66.6962 56.5 66.8329 56.45C66.9729 56.4 67.0895 56.33 67.1829 56.24C67.2762 56.15 67.3462 56.0433 67.3929 55.92C67.4395 55.7933 67.4629 55.655 67.4629 55.505C67.4629 55.195 67.3679 54.9483 67.1779 54.765C66.9912 54.5817 66.7179 54.49 66.3579 54.49C66.0012 54.49 65.7279 54.5817 65.5379 54.765C65.3512 54.9483 65.2579 55.195 65.2579 55.505C65.2579 55.655 65.2812 55.7933 65.3279 55.92C65.3779 56.0433 65.4495 56.15 65.5429 56.24C65.6362 56.33 65.7512 56.4 65.8879 56.45C66.0245 56.5 66.1812 56.525 66.3579 56.525ZM73.1789 60.495C73.1489 60.5617 73.1105 60.615 73.0639 60.655C73.0205 60.695 72.9522 60.715 72.8589 60.715H72.1989L73.1239 58.705L71.0339 53.935H71.8039C71.8805 53.935 71.9405 53.955 71.9839 53.995C72.0272 54.0317 72.0589 54.0733 72.0789 54.12L73.4339 57.31C73.4639 57.3833 73.4889 57.4567 73.5089 57.53C73.5322 57.6033 73.5522 57.6783 73.5689 57.755C73.5922 57.6783 73.6155 57.6033 73.6389 57.53C73.6622 57.4567 73.6889 57.3817 73.7189 57.305L75.0339 54.12C75.0539 54.0667 75.0872 54.0233 75.1339 53.99C75.1839 53.9533 75.2372 53.935 75.2939 53.935H76.0039L73.1789 60.495ZM78.7341 53.855C79.1041 53.855 79.4374 53.9167 79.7341 54.04C80.0341 54.1633 80.2874 54.3383 80.4941 54.565C80.7041 54.7917 80.8641 55.0667 80.9741 55.39C81.0874 55.71 81.1441 56.0683 81.1441 56.465C81.1441 56.865 81.0874 57.225 80.9741 57.545C80.8641 57.865 80.7041 58.1383 80.4941 58.365C80.2874 58.5917 80.0341 58.7667 79.7341 58.89C79.4374 59.01 79.1041 59.07 78.7341 59.07C78.3641 59.07 78.0291 59.01 77.7291 58.89C77.4324 58.7667 77.1791 58.5917 76.9691 58.365C76.7591 58.1383 76.5974 57.865 76.4841 57.545C76.3708 57.225 76.3141 56.865 76.3141 56.465C76.3141 56.0683 76.3708 55.71 76.4841 55.39C76.5974 55.0667 76.7591 54.7917 76.9691 54.565C77.1791 54.3383 77.4324 54.1633 77.7291 54.04C78.0291 53.9167 78.3641 53.855 78.7341 53.855ZM78.7341 58.375C79.2341 58.375 79.6074 58.2083 79.8541 57.875C80.1008 57.5383 80.2241 57.07 80.2241 56.47C80.2241 55.8667 80.1008 55.3967 79.8541 55.06C79.6074 54.7233 79.2341 54.555 78.7341 54.555C78.4808 54.555 78.2608 54.5983 78.0741 54.685C77.8874 54.7717 77.7308 54.8967 77.6041 55.06C77.4808 55.2233 77.3874 55.425 77.3241 55.665C77.2641 55.9017 77.2341 56.17 77.2341 56.47C77.2341 56.77 77.2641 57.0383 77.3241 57.275C77.3874 57.5117 77.4808 57.7117 77.6041 57.875C77.7308 58.035 77.8874 58.1583 78.0741 58.245C78.2608 58.3317 78.4808 58.375 78.7341 58.375ZM83.0107 53.935V57.165C83.0107 57.5483 83.0991 57.845 83.2757 58.055C83.4524 58.265 83.7191 58.37 84.0757 58.37C84.3357 58.37 84.5807 58.3083 84.8107 58.185C85.0407 58.0617 85.2524 57.89 85.4457 57.67V53.935H86.3357V59H85.8057C85.6791 59 85.5991 58.9383 85.5657 58.815L85.4957 58.27C85.2757 58.5133 85.0291 58.71 84.7557 58.86C84.4824 59.0067 84.1691 59.08 83.8157 59.08C83.5391 59.08 83.2941 59.035 83.0807 58.945C82.8707 58.8517 82.6941 58.7217 82.5507 58.555C82.4074 58.3883 82.2991 58.1867 82.2257 57.95C82.1557 57.7133 82.1207 57.4517 82.1207 57.165V53.935H83.0107ZM87.7974 59V53.935H88.3074C88.404 53.935 88.4707 53.9533 88.5074 53.99C88.544 54.0267 88.569 54.09 88.5824 54.18L88.6424 54.97C88.8157 54.6167 89.029 54.3417 89.2824 54.145C89.539 53.945 89.839 53.845 90.1824 53.845C90.3224 53.845 90.449 53.8617 90.5624 53.895C90.6757 53.925 90.7807 53.9683 90.8774 54.025L90.7624 54.69C90.739 54.7733 90.6874 54.815 90.6074 54.815C90.5607 54.815 90.489 54.8 90.3924 54.77C90.2957 54.7367 90.1607 54.72 89.9874 54.72C89.6774 54.72 89.4174 54.81 89.2074 54.99C89.0007 55.17 88.8274 55.4317 88.6874 55.775V59H87.7974ZM98.3192 51.835V52.625H94.8792V55.13H97.8192V55.92H94.8792V59H93.9042V51.835H98.3192ZM101.127 53.855C101.497 53.855 101.83 53.9167 102.127 54.04C102.427 54.1633 102.68 54.3383 102.887 54.565C103.097 54.7917 103.257 55.0667 103.367 55.39C103.48 55.71 103.537 56.0683 103.537 56.465C103.537 56.865 103.48 57.225 103.367 57.545C103.257 57.865 103.097 58.1383 102.887 58.365C102.68 58.5917 102.427 58.7667 102.127 58.89C101.83 59.01 101.497 59.07 101.127 59.07C100.757 59.07 100.422 59.01 100.122 58.89C99.825 58.7667 99.5717 58.5917 99.3617 58.365C99.1517 58.1383 98.99 57.865 98.8767 57.545C98.7633 57.225 98.7067 56.865 98.7067 56.465C98.7067 56.0683 98.7633 55.71 98.8767 55.39C98.99 55.0667 99.1517 54.7917 99.3617 54.565C99.5717 54.3383 99.825 54.1633 100.122 54.04C100.422 53.9167 100.757 53.855 101.127 53.855ZM101.127 58.375C101.627 58.375 102 58.2083 102.247 57.875C102.493 57.5383 102.617 57.07 102.617 56.47C102.617 55.8667 102.493 55.3967 102.247 55.06C102 54.7233 101.627 54.555 101.127 54.555C100.873 54.555 100.653 54.5983 100.467 54.685C100.28 54.7717 100.123 54.8967 99.9967 55.06C99.8733 55.2233 99.78 55.425 99.7167 55.665C99.6567 55.9017 99.6267 56.17 99.6267 56.47C99.6267 56.77 99.6567 57.0383 99.7167 57.275C99.78 57.5117 99.8733 57.7117 99.9967 57.875C100.123 58.035 100.28 58.1583 100.467 58.245C100.653 58.3317 100.873 58.375 101.127 58.375ZM104.633 59V53.935H105.143C105.24 53.935 105.307 53.9533 105.343 53.99C105.38 54.0267 105.405 54.09 105.418 54.18L105.478 54.97C105.652 54.6167 105.865 54.3417 106.118 54.145C106.375 53.945 106.675 53.845 107.018 53.845C107.158 53.845 107.285 53.8617 107.398 53.895C107.512 53.925 107.617 53.9683 107.713 54.025L107.598 54.69C107.575 54.7733 107.523 54.815 107.443 54.815C107.397 54.815 107.325 54.8 107.228 54.77C107.132 54.7367 106.997 54.72 106.823 54.72C106.513 54.72 106.253 54.81 106.043 54.99C105.837 55.17 105.663 55.4317 105.523 55.775V59H104.633ZM110.672 53.855C110.975 53.855 111.255 53.9067 111.512 54.01C111.768 54.11 111.99 54.2567 112.177 54.45C112.363 54.64 112.508 54.8767 112.612 55.16C112.718 55.44 112.772 55.76 112.772 56.12C112.772 56.26 112.757 56.3533 112.727 56.4C112.697 56.4467 112.64 56.47 112.557 56.47H109.187C109.193 56.79 109.237 57.0683 109.317 57.305C109.397 57.5417 109.507 57.74 109.647 57.9C109.787 58.0567 109.953 58.175 110.147 58.255C110.34 58.3317 110.557 58.37 110.797 58.37C111.02 58.37 111.212 58.345 111.372 58.295C111.535 58.2417 111.675 58.185 111.792 58.125C111.908 58.065 112.005 58.01 112.082 57.96C112.162 57.9067 112.23 57.88 112.287 57.88C112.36 57.88 112.417 57.9083 112.457 57.965L112.707 58.29C112.597 58.4233 112.465 58.54 112.312 58.64C112.158 58.7367 111.993 58.8167 111.817 58.88C111.643 58.9433 111.463 58.99 111.277 59.02C111.09 59.0533 110.905 59.07 110.722 59.07C110.372 59.07 110.048 59.0117 109.752 58.895C109.458 58.775 109.203 58.6017 108.987 58.375C108.773 58.145 108.607 57.8617 108.487 57.525C108.367 57.1883 108.307 56.8017 108.307 56.365C108.307 56.0117 108.36 55.6817 108.467 55.375C108.577 55.0683 108.733 54.8033 108.937 54.58C109.14 54.3533 109.388 54.1767 109.682 54.05C109.975 53.92 110.305 53.855 110.672 53.855ZM110.692 54.51C110.262 54.51 109.923 54.635 109.677 54.885C109.43 55.1317 109.277 55.475 109.217 55.915H111.972C111.972 55.7083 111.943 55.52 111.887 55.35C111.83 55.1767 111.747 55.0283 111.637 54.905C111.527 54.7783 111.392 54.6817 111.232 54.615C111.075 54.545 110.895 54.51 110.692 54.51ZM114.901 53.935V59H114.011V53.935H114.901ZM115.101 52.345C115.101 52.4317 115.082 52.5133 115.046 52.59C115.012 52.6633 114.966 52.73 114.906 52.79C114.849 52.8467 114.782 52.8917 114.706 52.925C114.629 52.9583 114.547 52.975 114.461 52.975C114.374 52.975 114.292 52.9583 114.216 52.925C114.142 52.8917 114.076 52.8467 114.016 52.79C113.959 52.73 113.914 52.6633 113.881 52.59C113.847 52.5133 113.831 52.4317 113.831 52.345C113.831 52.2583 113.847 52.1767 113.881 52.1C113.914 52.02 113.959 51.9517 114.016 51.895C114.076 51.835 114.142 51.7883 114.216 51.755C114.292 51.7217 114.374 51.705 114.461 51.705C114.547 51.705 114.629 51.7217 114.706 51.755C114.782 51.7883 114.849 51.835 114.906 51.895C114.966 51.9517 115.012 52.02 115.046 52.1C115.082 52.1767 115.101 52.2583 115.101 52.345ZM118.174 53.85C118.394 53.85 118.599 53.875 118.789 53.925C118.983 53.9717 119.158 54.0417 119.314 54.135H120.689V54.465C120.689 54.575 120.619 54.645 120.479 54.675L119.904 54.755C120.018 54.9717 120.074 55.2133 120.074 55.48C120.074 55.7267 120.026 55.9517 119.929 56.155C119.836 56.355 119.704 56.5267 119.534 56.67C119.368 56.8133 119.168 56.9233 118.934 57C118.704 57.0767 118.451 57.115 118.174 57.115C117.938 57.115 117.714 57.0867 117.504 57.03C117.398 57.0967 117.316 57.1683 117.259 57.245C117.206 57.3217 117.179 57.3967 117.179 57.47C117.179 57.59 117.228 57.6817 117.324 57.745C117.421 57.805 117.549 57.8483 117.709 57.875C117.869 57.9017 118.051 57.9183 118.254 57.925C118.458 57.9317 118.664 57.9433 118.874 57.96C119.088 57.9733 119.296 57.9983 119.499 58.035C119.703 58.0717 119.884 58.1317 120.044 58.215C120.204 58.2983 120.333 58.4133 120.429 58.56C120.526 58.7067 120.574 58.8967 120.574 59.13C120.574 59.3467 120.519 59.5567 120.409 59.76C120.303 59.9633 120.148 60.1433 119.944 60.3C119.741 60.46 119.493 60.5867 119.199 60.68C118.906 60.7767 118.574 60.825 118.204 60.825C117.834 60.825 117.509 60.7883 117.229 60.715C116.953 60.6417 116.723 60.5433 116.539 60.42C116.356 60.2967 116.218 60.1533 116.124 59.99C116.034 59.83 115.989 59.6617 115.989 59.485C115.989 59.235 116.068 59.0233 116.224 58.85C116.384 58.6733 116.603 58.5333 116.879 58.43C116.736 58.3633 116.621 58.275 116.534 58.165C116.451 58.0517 116.409 57.9017 116.409 57.715C116.409 57.6417 116.423 57.5667 116.449 57.49C116.476 57.41 116.516 57.3317 116.569 57.255C116.626 57.1783 116.694 57.105 116.774 57.035C116.854 56.965 116.948 56.9033 117.054 56.85C116.804 56.71 116.608 56.525 116.464 56.295C116.324 56.0617 116.254 55.79 116.254 55.48C116.254 55.2333 116.301 55.01 116.394 54.81C116.491 54.6067 116.624 54.435 116.794 54.295C116.964 54.1517 117.166 54.0417 117.399 53.965C117.636 53.8883 117.894 53.85 118.174 53.85ZM119.754 59.275C119.754 59.1483 119.719 59.0467 119.649 58.97C119.579 58.8933 119.484 58.835 119.364 58.795C119.244 58.7517 119.106 58.72 118.949 58.7C118.793 58.68 118.628 58.6667 118.454 58.66C118.281 58.65 118.104 58.64 117.924 58.63C117.744 58.62 117.573 58.6017 117.409 58.575C117.219 58.665 117.064 58.775 116.944 58.905C116.828 59.035 116.769 59.19 116.769 59.37C116.769 59.4833 116.798 59.5883 116.854 59.685C116.914 59.785 117.004 59.87 117.124 59.94C117.244 60.0133 117.394 60.07 117.574 60.11C117.758 60.1533 117.973 60.175 118.219 60.175C118.459 60.175 118.674 60.1533 118.864 60.11C119.054 60.0667 119.214 60.005 119.344 59.925C119.478 59.845 119.579 59.75 119.649 59.64C119.719 59.53 119.754 59.4083 119.754 59.275ZM118.174 56.525C118.354 56.525 118.513 56.5 118.649 56.45C118.789 56.4 118.906 56.33 118.999 56.24C119.093 56.15 119.163 56.0433 119.209 55.92C119.256 55.7933 119.279 55.655 119.279 55.505C119.279 55.195 119.184 54.9483 118.994 54.765C118.808 54.5817 118.534 54.49 118.174 54.49C117.818 54.49 117.544 54.5817 117.354 54.765C117.168 54.9483 117.074 55.195 117.074 55.505C117.074 55.655 117.098 55.7933 117.144 55.92C117.194 56.0433 117.266 56.15 117.359 56.24C117.453 56.33 117.568 56.4 117.704 56.45C117.841 56.5 117.998 56.525 118.174 56.525ZM121.577 59V53.935H122.107C122.233 53.935 122.313 53.9967 122.347 54.12L122.417 54.67C122.637 54.4267 122.882 54.23 123.152 54.08C123.425 53.93 123.74 53.855 124.097 53.855C124.373 53.855 124.617 53.9017 124.827 53.995C125.04 54.085 125.217 54.215 125.357 54.385C125.5 54.5517 125.608 54.7533 125.682 54.99C125.755 55.2267 125.792 55.4883 125.792 55.775V59H124.902V55.775C124.902 55.3917 124.813 55.095 124.637 54.885C124.463 54.6717 124.197 54.565 123.837 54.565C123.573 54.565 123.327 54.6283 123.097 54.755C122.87 54.8817 122.66 55.0533 122.467 55.27V59H121.577ZM128.377 51.835H129.152C129.239 51.835 129.309 51.8567 129.362 51.9C129.415 51.9433 129.455 51.9983 129.482 52.065L131.507 57.12C131.554 57.2333 131.595 57.3567 131.632 57.49C131.672 57.6233 131.71 57.7617 131.747 57.905C131.777 57.7617 131.809 57.6233 131.842 57.49C131.879 57.3567 131.92 57.2333 131.967 57.12L133.982 52.065C134.005 52.0083 134.045 51.9567 134.102 51.91C134.159 51.86 134.229 51.835 134.312 51.835H135.092L132.172 59H131.297L128.377 51.835ZM137.338 53.855C137.708 53.855 138.041 53.9167 138.338 54.04C138.638 54.1633 138.891 54.3383 139.098 54.565C139.308 54.7917 139.468 55.0667 139.578 55.39C139.691 55.71 139.748 56.0683 139.748 56.465C139.748 56.865 139.691 57.225 139.578 57.545C139.468 57.865 139.308 58.1383 139.098 58.365C138.891 58.5917 138.638 58.7667 138.338 58.89C138.041 59.01 137.708 59.07 137.338 59.07C136.968 59.07 136.633 59.01 136.333 58.89C136.036 58.7667 135.783 58.5917 135.573 58.365C135.363 58.1383 135.201 57.865 135.088 57.545C134.974 57.225 134.918 56.865 134.918 56.465C134.918 56.0683 134.974 55.71 135.088 55.39C135.201 55.0667 135.363 54.7917 135.573 54.565C135.783 54.3383 136.036 54.1633 136.333 54.04C136.633 53.9167 136.968 53.855 137.338 53.855ZM137.338 58.375C137.838 58.375 138.211 58.2083 138.458 57.875C138.704 57.5383 138.828 57.07 138.828 56.47C138.828 55.8667 138.704 55.3967 138.458 55.06C138.211 54.7233 137.838 54.555 137.338 54.555C137.084 54.555 136.864 54.5983 136.678 54.685C136.491 54.7717 136.334 54.8967 136.208 55.06C136.084 55.2233 135.991 55.425 135.928 55.665C135.868 55.9017 135.838 56.17 135.838 56.47C135.838 56.77 135.868 57.0383 135.928 57.275C135.991 57.5117 136.084 57.7117 136.208 57.875C136.334 58.035 136.491 58.1583 136.678 58.245C136.864 58.3317 137.084 58.375 137.338 58.375ZM144.299 54.835C144.273 54.8717 144.246 54.9 144.219 54.92C144.193 54.94 144.154 54.95 144.104 54.95C144.054 54.95 143.999 54.93 143.939 54.89C143.883 54.8467 143.809 54.8 143.719 54.75C143.629 54.7 143.519 54.655 143.389 54.615C143.263 54.5717 143.106 54.55 142.919 54.55C142.673 54.55 142.454 54.595 142.264 54.685C142.074 54.7717 141.914 54.8983 141.784 55.065C141.658 55.2317 141.561 55.4333 141.494 55.67C141.431 55.9067 141.399 56.1717 141.399 56.465C141.399 56.7717 141.434 57.045 141.504 57.285C141.574 57.5217 141.673 57.7217 141.799 57.885C141.926 58.045 142.079 58.1683 142.259 58.255C142.443 58.3383 142.648 58.38 142.874 58.38C143.091 58.38 143.269 58.355 143.409 58.305C143.549 58.2517 143.666 58.1933 143.759 58.13C143.853 58.0667 143.929 58.01 143.989 57.96C144.049 57.9067 144.109 57.88 144.169 57.88C144.246 57.88 144.303 57.9083 144.339 57.965L144.589 58.29C144.369 58.56 144.094 58.7583 143.764 58.885C143.434 59.0083 143.086 59.07 142.719 59.07C142.403 59.07 142.108 59.0117 141.834 58.895C141.564 58.7783 141.329 58.61 141.129 58.39C140.929 58.1667 140.771 57.8933 140.654 57.57C140.541 57.2467 140.484 56.8783 140.484 56.465C140.484 56.0883 140.536 55.74 140.639 55.42C140.746 55.1 140.899 54.825 141.099 54.595C141.303 54.3617 141.553 54.18 141.849 54.05C142.146 53.92 142.486 53.855 142.869 53.855C143.223 53.855 143.536 53.9133 143.809 54.03C144.083 54.1433 144.324 54.305 144.534 54.515L144.299 54.835ZM149.232 59H148.837C148.751 59 148.681 58.9867 148.627 58.96C148.574 58.9333 148.539 58.8767 148.522 58.79L148.422 58.32C148.289 58.44 148.159 58.5483 148.032 58.645C147.906 58.7383 147.772 58.8183 147.632 58.885C147.492 58.9483 147.342 58.9967 147.182 59.03C147.026 59.0633 146.851 59.08 146.657 59.08C146.461 59.08 146.276 59.0533 146.102 59C145.932 58.9433 145.784 58.86 145.657 58.75C145.531 58.64 145.429 58.5017 145.352 58.335C145.279 58.165 145.242 57.965 145.242 57.735C145.242 57.535 145.297 57.3433 145.407 57.16C145.517 56.9733 145.694 56.8083 145.937 56.665C146.184 56.5217 146.506 56.405 146.902 56.315C147.299 56.2217 147.784 56.1683 148.357 56.155V55.76C148.357 55.3667 148.272 55.07 148.102 54.87C147.936 54.6667 147.687 54.565 147.357 54.565C147.141 54.565 146.957 54.5933 146.807 54.65C146.661 54.7033 146.532 54.765 146.422 54.835C146.316 54.9017 146.222 54.9633 146.142 55.02C146.066 55.0733 145.989 55.1 145.912 55.1C145.852 55.1 145.799 55.085 145.752 55.055C145.709 55.0217 145.674 54.9817 145.647 54.935L145.487 54.65C145.767 54.38 146.069 54.1783 146.392 54.045C146.716 53.9117 147.074 53.845 147.467 53.845C147.751 53.845 148.002 53.8917 148.222 53.985C148.442 54.0783 148.627 54.2083 148.777 54.375C148.927 54.5417 149.041 54.7433 149.117 54.98C149.194 55.2167 149.232 55.4767 149.232 55.76V59ZM146.922 58.455C147.079 58.455 147.222 58.44 147.352 58.41C147.482 58.3767 147.604 58.3317 147.717 58.275C147.834 58.215 147.944 58.1433 148.047 58.06C148.154 57.9767 148.257 57.8817 148.357 57.775V56.72C147.947 56.7333 147.599 56.7667 147.312 56.82C147.026 56.87 146.792 56.9367 146.612 57.02C146.432 57.1033 146.301 57.2017 146.217 57.315C146.137 57.4283 146.097 57.555 146.097 57.695C146.097 57.8283 146.119 57.9433 146.162 58.04C146.206 58.1367 146.264 58.2167 146.337 58.28C146.411 58.34 146.497 58.385 146.597 58.415C146.697 58.4417 146.806 58.455 146.922 58.455ZM150.611 59V51.635H151.506V54.665C151.716 54.4217 151.956 54.2267 152.226 54.08C152.499 53.93 152.811 53.855 153.161 53.855C153.454 53.855 153.719 53.91 153.956 54.02C154.192 54.13 154.394 54.295 154.561 54.515C154.727 54.7317 154.856 55.0017 154.946 55.325C155.036 55.645 155.081 56.015 155.081 56.435C155.081 56.8083 155.031 57.1567 154.931 57.48C154.831 57.8 154.686 58.0783 154.496 58.315C154.309 58.5483 154.079 58.7333 153.806 58.87C153.536 59.0033 153.231 59.07 152.891 59.07C152.564 59.07 152.286 59.0067 152.056 58.88C151.829 58.7533 151.631 58.5767 151.461 58.35L151.416 58.81C151.389 58.9367 151.312 59 151.186 59H150.611ZM152.871 54.565C152.581 54.565 152.326 54.6317 152.106 54.765C151.889 54.8983 151.689 55.0867 151.506 55.33V57.78C151.666 58 151.842 58.155 152.036 58.245C152.232 58.335 152.451 58.38 152.691 58.38C153.164 58.38 153.527 58.2117 153.781 57.875C154.034 57.5383 154.161 57.0583 154.161 56.435C154.161 56.105 154.131 55.8217 154.071 55.585C154.014 55.3483 153.931 55.155 153.821 55.005C153.711 54.8517 153.576 54.74 153.416 54.67C153.256 54.6 153.074 54.565 152.871 54.565ZM156.937 53.935V57.165C156.937 57.5483 157.025 57.845 157.202 58.055C157.378 58.265 157.645 58.37 158.002 58.37C158.262 58.37 158.507 58.3083 158.737 58.185C158.967 58.0617 159.178 57.89 159.372 57.67V53.935H160.262V59H159.732C159.605 59 159.525 58.9383 159.492 58.815L159.422 58.27C159.202 58.5133 158.955 58.71 158.682 58.86C158.408 59.0067 158.095 59.08 157.742 59.08C157.465 59.08 157.22 59.035 157.007 58.945C156.797 58.8517 156.62 58.7217 156.477 58.555C156.333 58.3883 156.225 58.1867 156.152 57.95C156.082 57.7133 156.047 57.4517 156.047 57.165V53.935H156.937ZM162.713 51.635V59H161.823V51.635H162.713ZM168.002 59H167.607C167.52 59 167.45 58.9867 167.397 58.96C167.343 58.9333 167.308 58.8767 167.292 58.79L167.192 58.32C167.058 58.44 166.928 58.5483 166.802 58.645C166.675 58.7383 166.542 58.8183 166.402 58.885C166.262 58.9483 166.112 58.9967 165.952 59.03C165.795 59.0633 165.62 59.08 165.427 59.08C165.23 59.08 165.045 59.0533 164.872 59C164.702 58.9433 164.553 58.86 164.427 58.75C164.3 58.64 164.198 58.5017 164.122 58.335C164.048 58.165 164.012 57.965 164.012 57.735C164.012 57.535 164.067 57.3433 164.177 57.16C164.287 56.9733 164.463 56.8083 164.707 56.665C164.953 56.5217 165.275 56.405 165.672 56.315C166.068 56.2217 166.553 56.1683 167.127 56.155V55.76C167.127 55.3667 167.042 55.07 166.872 54.87C166.705 54.6667 166.457 54.565 166.127 54.565C165.91 54.565 165.727 54.5933 165.577 54.65C165.43 54.7033 165.302 54.765 165.192 54.835C165.085 54.9017 164.992 54.9633 164.912 55.02C164.835 55.0733 164.758 55.1 164.682 55.1C164.622 55.1 164.568 55.085 164.522 55.055C164.478 55.0217 164.443 54.9817 164.417 54.935L164.257 54.65C164.537 54.38 164.838 54.1783 165.162 54.045C165.485 53.9117 165.843 53.845 166.237 53.845C166.52 53.845 166.772 53.8917 166.992 53.985C167.212 54.0783 167.397 54.2083 167.547 54.375C167.697 54.5417 167.81 54.7433 167.887 54.98C167.963 55.2167 168.002 55.4767 168.002 55.76V59ZM165.692 58.455C165.848 58.455 165.992 58.44 166.122 58.41C166.252 58.3767 166.373 58.3317 166.487 58.275C166.603 58.215 166.713 58.1433 166.817 58.06C166.923 57.9767 167.027 57.8817 167.127 57.775V56.72C166.717 56.7333 166.368 56.7667 166.082 56.82C165.795 56.87 165.562 56.9367 165.382 57.02C165.202 57.1033 165.07 57.2017 164.987 57.315C164.907 57.4283 164.867 57.555 164.867 57.695C164.867 57.8283 164.888 57.9433 164.932 58.04C164.975 58.1367 165.033 58.2167 165.107 58.28C165.18 58.34 165.267 58.385 165.367 58.415C165.467 58.4417 165.575 58.455 165.692 58.455ZM169.35 59V53.935H169.86C169.957 53.935 170.023 53.9533 170.06 53.99C170.097 54.0267 170.122 54.09 170.135 54.18L170.195 54.97C170.368 54.6167 170.582 54.3417 170.835 54.145C171.092 53.945 171.392 53.845 171.735 53.845C171.875 53.845 172.002 53.8617 172.115 53.895C172.228 53.925 172.333 53.9683 172.43 54.025L172.315 54.69C172.292 54.7733 172.24 54.815 172.16 54.815C172.113 54.815 172.042 54.8 171.945 54.77C171.848 54.7367 171.713 54.72 171.54 54.72C171.23 54.72 170.97 54.81 170.76 54.99C170.553 55.17 170.38 55.4317 170.24 55.775V59H169.35ZM174.868 60.495C174.838 60.5617 174.8 60.615 174.753 60.655C174.71 60.695 174.642 60.715 174.548 60.715H173.888L174.813 58.705L172.723 53.935H173.493C173.57 53.935 173.63 53.955 173.673 53.995C173.717 54.0317 173.748 54.0733 173.768 54.12L175.123 57.31C175.153 57.3833 175.178 57.4567 175.198 57.53C175.222 57.6033 175.242 57.6783 175.258 57.755C175.282 57.6783 175.305 57.6033 175.328 57.53C175.352 57.4567 175.378 57.3817 175.408 57.305L176.723 54.12C176.743 54.0667 176.777 54.0233 176.823 53.99C176.873 53.9533 176.927 53.935 176.983 53.935H177.693L174.868 60.495Z" />
  <path
     id="path2709"
     stroke-width="2"
     stroke="#F0F4F8"
     fill="#F0F4F8"
     d="M15.8734 9.33936C15.8734 10.7234 14.3394 12.2308 11.9107 12.2308C9.48191 12.2308 7.94788 10.7234 7.94788 9.33936C7.94788 7.95534 9.48191 6.44796 11.9107 6.44796C14.3394 6.44796 15.8734 7.95534 15.8734 9.33936Z" />
  <path
     id="path2711"
     stroke-width="2"
     stroke="#147D64"
     fill="#F0F4F8"
     d="M15.8734 9.33936C15.8734 10.7234 14.3394 12.2308 11.9107 12.2308C9.48191 12.2308 7.94788 10.7234 7.94788 9.33936C7.94788 7.95534 9.48191 6.44796 11.9107 6.44796C14.3394 6.44796 15.8734 7.95534 15.8734 9.33936Z" />
  <rect
     id="rect2713"
     fill="#F0F4F8"
     height="9.33937"
     width="11.9107"
     x="6.94788" />
  <rect
     id="rect2715"
     fill="#F0F4F8"
     height="9.33937"
     width="11.9107"
     y="7.78281" />
  <path
     id="path2717"
     stroke-width="2"
     stroke="#F0F4F8"
     fill="#F0F4F8"
     d="M184.127 76.6606C184.127 75.2766 185.661 73.7692 188.089 73.7692C190.518 73.7692 192.052 75.2766 192.052 76.6606C192.052 78.0447 190.518 79.552 188.089 79.552C185.661 79.552 184.127 78.0447 184.127 76.6606Z" />
  <path
     id="path2719"
     stroke-width="2"
     stroke="#147D64"
     fill="#F0F4F8"
     d="M184.127 76.6606C184.127 75.2766 185.661 73.7692 188.089 73.7692C190.518 73.7692 192.052 75.2766 192.052 76.6606C192.052 78.0447 190.518 79.552 188.089 79.552C185.661 79.552 184.127 78.0447 184.127 76.6606Z" />
  <rect
     id="rect2721"
     fill="#F0F4F8"
     transform="rotate(-180 193.052 86)"
     height="9.33937"
     width="11.9107"
     y="86"
     x="193.052" />
  <rect
     id="rect2723"
     fill="#F0F4F8"
     transform="rotate(-180 200 78.2172)"
     height="9.33937"
     width="11.9107"
     y="78.2172"
     x="200" />
  <path
     id="path2725"
     stroke-width="2"
     stroke="#F0F4F8"
     fill="#F0F4F8"
     d="M11.9107 73.7692C14.3394 73.7692 15.8734 75.2766 15.8734 76.6606C15.8734 78.0447 14.3394 79.552 11.9107 79.552C9.48191 79.552 7.94788 78.0447 7.94788 76.6606C7.94788 75.2766 9.48191 73.7692 11.9107 73.7692Z" />
  <path
     id="path2727"
     stroke-width="2"
     stroke="#147D64"
     fill="#F0F4F8"
     d="M11.9107 73.7692C14.3394 73.7692 15.8734 75.2766 15.8734 76.6606C15.8734 78.0447 14.3394 79.552 11.9107 79.552C9.48191 79.552 7.94788 78.0447 7.94788 76.6606C7.94788 75.2766 9.48191 73.7692 11.9107 73.7692Z" />
  <rect
     id="rect2729"
     fill="#F0F4F8"
     transform="rotate(-90 0 80.552)"
     height="11.9107"
     width="9.33937"
     y="80.552" />
  <rect
     id="rect2731"
     fill="#F0F4F8"
     transform="rotate(-90 9.92554 86)"
     height="11.9107"
     width="9.33937"
     y="86"
     x="9.92554" />
  <path
     id="path2733"
     fill="#147D64"
     d="M190.571 77.6335C190.571 78.1708 190.015 78.6063 189.33 78.6063C188.645 78.6063 188.089 78.1708 188.089 77.6335C188.089 77.0962 188.645 76.6606 189.33 76.6606C190.015 76.6606 190.571 77.0962 190.571 77.6335Z" />
  <ellipse
     id="ellipse2735"
     fill="#147D64"
     ry="0.972851"
     rx="1.24069"
     cy="77.6335"
     cx="10.67" />
  <path
     id="path2737"
     fill="#147D64"
     d="M11.9107 8.36651C11.9107 8.9038 11.3552 9.33936 10.67 9.33936C9.9848 9.33936 9.42932 8.9038 9.42932 8.36651C9.42932 7.82922 9.9848 7.39366 10.67 7.39366C11.3552 7.39366 11.9107 7.82922 11.9107 8.36651Z" />
  <path
     id="path2739"
     stroke-width="2"
     stroke="#F0F4F8"
     fill="#F0F4F8"
     d="M188.089 12.2308C185.661 12.2308 184.127 10.7234 184.127 9.33936C184.127 7.95534 185.661 6.44796 188.089 6.44796C190.518 6.44796 192.052 7.95534 192.052 9.33936C192.052 10.7234 190.518 12.2308 188.089 12.2308Z" />
  <path
     id="path2741"
     stroke-width="2"
     stroke="#147D64"
     fill="#F0F4F8"
     d="M188.089 12.2308C185.661 12.2308 184.127 10.7234 184.127 9.33936C184.127 7.95534 185.661 6.44796 188.089 6.44796C190.518 6.44796 192.052 7.95534 192.052 9.33936C192.052 10.7234 190.518 12.2308 188.089 12.2308Z" />
  <rect
     id="rect2743"
     fill="#F0F4F8"
     transform="rotate(90 193.052 5.44796)"
     height="4.96278"
     width="10.1176"
     y="5.44796"
     x="193.052" />
  <rect
     id="rect2745"
     fill="#F0F4F8"
     transform="rotate(90 190.074 0)"
     height="11.9107"
     width="9.33937"
     x="190.074" />
  <ellipse
     id="ellipse2747"
     fill="#147D64"
     ry="0.972851"
     rx="1.24069"
     cy="8.36651"
     cx="189.33" />
  <rect
     id="rect2749"
     stroke-width="2"
     stroke="#147D64"
     height="65.3213"
     width="174.179"
     y="10.3394"
     x="12.9108" />
</svg>
