<?xml version="1.0" encoding="UTF-8" standalone="no"?>
<svg
   xmlns:dc="http://purl.org/dc/elements/1.1/"
   xmlns:cc="http://creativecommons.org/ns#"
   xmlns:rdf="http://www.w3.org/1999/02/22-rdf-syntax-ns#"
   xmlns:svg="http://www.w3.org/2000/svg"
   xmlns="http://www.w3.org/2000/svg"
   xmlns:sodipodi="http://sodipodi.sourceforge.net/DTD/sodipodi-0.dtd"
   xmlns:inkscape="http://www.inkscape.org/namespaces/inkscape"
   width="150"
   height="57"
   viewBox="0 0 150 57"
   fill="none"
   version="1.1"
   id="svg2751"
   sodipodi:docname="brand.svg"
   inkscape:version="1.0rc1 (09960d6, 2020-04-09)">
  <g
     transform="translate(-11.9108,-9.3394003)"
     id="g2741">
    <path
       style="stroke-width:0.856267"
       inkscape:connector-curvature="0"
       id="path2703"
       fill="#147d64"
       d="m 59.464442,30.362979 c 0.401847,-0.07304 0.666691,-0.178103 0.794617,-0.315105 0.127846,-0.14616 0.191804,-0.415546 0.191804,-0.808315 l 0.01365,-5.754114 c 0,-0.292246 -0.03658,-0.488673 -0.109604,-0.589112 -0.06396,-0.100444 -0.196427,-0.150704 -0.397308,-0.150704 -0.09136,0 -0.182728,0.0045 -0.274006,0.01365 -0.09136,0.0092 -0.155326,0.01365 -0.191803,0.01365 l -0.0274,-0.0548 0.09591,-0.602813 c 0.109605,0.0092 0.315105,0.01824 0.616513,0.0274 0.301405,0.0092 0.60281,0.01365 0.904217,0.01365 0.283082,0 0.602811,-0.0045 0.959019,-0.01365 0.365283,-0.01824 0.62105,-0.03193 0.767216,-0.04111 0.949857,0 1.675971,0.210042 2.178342,0.630211 0.502286,0.420172 0.753516,1.022984 0.753516,1.808437 0,0.511449 -0.150703,1.000121 -0.452109,1.46593 -0.292331,0.456647 -0.680476,0.826555 -1.164523,1.109721 -0.484135,0.283168 -0.991044,0.424709 -1.520731,0.424709 h -1.150778 l -0.0274,1.342628 c 0,0.438407 0.01365,0.753514 0.04111,0.945318 0.0274,0.182641 0.07758,0.305944 0.150703,0.369907 0.0822,0.0548 0.219204,0.0822 0.411008,0.0822 0.155241,0 0.301407,-0.0045 0.438409,-0.01365 0.146085,-0.0092 0.246604,-0.01824 0.301407,-0.0274 l 0.0274,0.0548 -0.123299,0.630212 c -0.09136,-0.0092 -0.260305,-0.01824 -0.506909,-0.0274 -0.237529,-0.0092 -0.488673,-0.01365 -0.753516,-0.01365 -0.365368,0 -0.794615,0.01365 -1.287825,0.04109 -0.484134,0.0274 -0.735277,0.05027 -0.753515,0.06851 z m 3.46617,-3.425067 c 0.548011,-0.09136 0.959018,-0.315105 1.233026,-0.671313 0.28308,-0.356207 0.424706,-0.844878 0.424706,-1.465929 0,-0.703252 -0.210128,-1.214786 -0.630211,-1.534431 -0.411009,-0.328806 -1.059545,-0.493209 -1.945439,-0.493209 -0.164403,0 -0.26493,0.0092 -0.301408,0.0274 -0.03655,0.01824 -0.05943,0.07304 -0.06851,0.164403 -0.0822,1.159984 -0.136994,2.415785 -0.164403,3.767575 z m 5.656243,4.110083 c -0.520611,0 -0.981797,-0.127846 -1.383728,-0.383609 -0.401846,-0.255766 -0.716952,-0.611973 -0.94532,-1.06862 -0.219203,-0.465809 -0.328805,-0.995582 -0.328805,-1.589231 0,-0.639376 0.137009,-1.223865 0.411008,-1.753635 0.283168,-0.538851 0.666774,-0.95902 1.150822,-1.260427 0.484134,-0.310567 1.022984,-0.465808 1.616633,-0.465808 0.511534,0 0.96818,0.127846 1.370027,0.383606 0.411009,0.255769 0.726114,0.616513 0.945318,1.082322 0.228367,0.456647 0.342508,0.981881 0.342508,1.575531 0,0.639376 -0.141541,1.228488 -0.424709,1.767336 -0.274005,0.529773 -0.65299,0.949858 -1.137122,1.260426 -0.484048,0.301404 -1.022896,0.452109 -1.616632,0.452109 z m 0.383607,-0.671314 c 0.511534,0 0.917919,-0.205504 1.219325,-0.616513 0.301405,-0.42017 0.452108,-0.986421 0.452108,-1.698832 0,-0.53885 -0.0822,-1.018359 -0.246604,-1.438529 -0.164403,-0.429247 -0.397308,-0.762677 -0.698713,-1.000121 -0.292245,-0.237443 -0.625591,-0.356206 -1.000121,-0.356206 -0.511449,0 -0.917918,0.210042 -1.219325,0.630212 -0.301405,0.42017 -0.452109,0.990958 -0.452109,1.712534 0,0.538849 0.0822,1.018358 0.246604,1.438529 0.164406,0.420169 0.392771,0.748977 0.685016,0.986419 0.292329,0.228366 0.630212,0.342507 1.013819,0.342507 z m 3.713459,0.109605 c 0.255682,-0.07304 0.433784,-0.164404 0.534311,-0.274007 0.109604,-0.109604 0.17348,-0.242066 0.191804,-0.397307 0.0274,-0.155243 0.04109,-0.415546 0.04109,-0.780916 v -6.726834 c 0,-0.283167 -0.03202,-0.474971 -0.09589,-0.575411 -0.06396,-0.100433 -0.196428,-0.150704 -0.397308,-0.150704 -0.04573,0 -0.150704,0.0092 -0.315107,0.0274 l -0.04109,-0.0274 0.0548,-0.465808 c 0.767216,-0.109604 1.443069,-0.242066 2.027643,-0.397308 l 0.0822,0.178103 c -0.100532,0.155243 -0.191805,1.132585 -0.274005,2.93186 -0.07313,1.799273 -0.109604,3.70361 -0.109604,5.713012 0,0.274006 0.03647,0.470348 0.109604,0.589111 0.07304,0.118771 0.196342,0.178104 0.369906,0.178104 l 0.47951,-0.0274 0.0274,0.0548 -0.109604,0.589111 c -0.602812,-0.0274 -1.009281,-0.04109 -1.219325,-0.04109 -0.310567,0 -0.780915,0.0548 -1.411128,0.164404 z m 3.413253,3.699073 c -0.07304,0 -0.191806,-0.109605 -0.356209,-0.328808 -0.164403,-0.210042 -0.246604,-0.360744 -0.246604,-0.452108 l 0.06851,-0.09589 c 0.511536,0 0.98642,-0.214666 1.424829,-0.643911 0.44757,-0.420172 0.831178,-1.013821 1.150823,-1.781036 -0.703253,-2.228607 -1.269501,-3.909118 -1.698835,-5.041701 -0.0822,-0.228366 -0.200879,-0.392769 -0.356205,-0.49321 -0.146085,-0.100444 -0.337883,-0.15524 -0.575412,-0.164403 l -0.0274,-0.05481 0.0822,-0.452108 1.137123,0.01365 c 0.337968,0 0.671313,-0.01365 1.00012,-0.04109 0.337967,-0.0274 0.552634,-0.04565 0.643912,-0.0548 l 0.0274,0.06851 -0.0822,0.424708 c -0.310483,0.0092 -0.520612,0.04111 -0.630214,0.09591 -0.100444,0.04565 -0.150701,0.132465 -0.150701,0.260305 0,0.146158 0.08682,0.525147 0.260303,1.137121 0.182729,0.611977 0.369908,1.223864 0.561712,1.835838 0.191805,0.602813 0.31973,0.995582 0.383608,1.178223 h 0.0548 c 1.050382,-2.511688 1.575531,-3.877176 1.575531,-4.096381 0,-0.237444 -0.173479,-0.356207 -0.52061,-0.356207 h -0.630213 l -0.0274,-0.0548 0.0822,-0.452108 c 0.0822,0.0092 0.264929,0.02286 0.548012,0.04111 0.283167,0.0092 0.566334,0.01365 0.849416,0.01365 l 1.164523,-0.01365 -0.09589,0.50691 c -0.200881,0.03655 -0.356208,0.109604 -0.465809,0.219205 -0.100444,0.100444 -0.20088,0.287705 -0.301406,0.56171 l -1.739944,4.16488 c -0.474884,1.150823 -0.863116,2.004778 -1.164522,2.561951 -0.301406,0.557172 -0.598187,0.945319 -0.890518,1.164522 -0.292244,0.228368 -0.643912,0.33797 -1.05492,0.328809 z M 87.95861,25.088378 c -0.173821,0.0274 -0.566849,0.06851 -1.178479,0.1233 l -0.0548,0.0685 c 0.365027,0.401847 0.548268,0.867655 0.548268,1.397429 0,0.438408 -0.123301,0.844877 -0.370165,1.219322 -0.237528,0.374447 -0.561712,0.671315 -0.972719,0.89052 -0.411008,0.210042 -0.863118,0.315106 -1.356327,0.315106 -0.264928,0 -0.52061,-0.03656 -0.767216,-0.109605 -0.210127,0.11877 -0.360829,0.228366 -0.452109,0.328806 -0.09136,0.100444 -0.13701,0.200965 -0.13701,0.301406 0,0.210043 0.141541,0.356208 0.42471,0.438409 0.283081,0.0822 0.726112,0.159864 1.328925,0.232904 0.59365,0.07304 1.073161,0.150703 1.438529,0.232904 0.365283,0.07304 0.680133,0.210042 0.945576,0.411009 0.264587,0.200965 0.397308,0.47951 0.397308,0.835717 0,0.401846 -0.164405,0.790077 -0.49321,1.164522 -0.320244,0.374445 -0.744696,0.675853 -1.274383,0.904219 -0.52061,0.237442 -1.059544,0.356207 -1.616633,0.356207 -0.648536,0 -1.159983,-0.164404 -1.534429,-0.49321 -0.365369,-0.319645 -0.548011,-0.762679 -0.548011,-1.328926 0.127844,-0.164403 0.310482,-0.356208 0.548011,-0.575411 0.246605,-0.219205 0.515987,-0.43841 0.808317,-0.657615 v -0.0822 c -0.474973,-0.0822 -0.840342,-0.237442 -1.096022,-0.465808 -0.255768,-0.228367 -0.388232,-0.520611 -0.397309,-0.876818 0.356207,-0.337968 0.739816,-0.630213 1.150824,-0.876817 v -0.0548 c -0.319728,-0.182632 -0.570872,-0.4247 -0.753513,-0.726104 -0.173565,-0.31057 -0.260306,-0.657614 -0.260306,-1.041221 0,-0.447572 0.114135,-0.85858 0.342506,-1.233026 0.237445,-0.383606 0.548011,-0.689551 0.931619,-0.917917 0.392684,-0.228367 0.817392,-0.342507 1.274127,-0.342507 0.210041,0 0.470347,0.0274 0.780913,0.0822 0.228282,0.04565 0.415549,0.06851 0.561712,0.06851 0.411009,-0.04565 1.041479,-0.182642 1.890894,-0.411008 l 0.04109,0.0548 z m -3.069116,3.411367 c 0.420083,0 0.748892,-0.132465 0.986419,-0.397308 0.246605,-0.264843 0.369908,-0.630213 0.369908,-1.096021 0,-0.529773 -0.14616,-0.959019 -0.43841,-1.287825 -0.292329,-0.328809 -0.671313,-0.493211 -1.137121,-0.493211 -0.420171,0 -0.753517,0.137009 -1.00012,0.411009 -0.23753,0.274006 -0.356207,0.643913 -0.356207,1.109721 0,0.520611 0.146086,0.945319 0.438407,1.274126 0.292245,0.319643 0.671313,0.479509 1.137124,0.479509 z m -0.657614,2.671552 c -0.274005,0.191806 -0.484132,0.401848 -0.630213,0.630214 -0.146159,0.237442 -0.219204,0.470347 -0.219204,0.698713 0,0.31057 0.132376,0.557173 0.397308,0.739816 0.264844,0.191803 0.616512,0.287705 1.054922,0.287705 0.347044,0 0.675851,-0.06396 0.986419,-0.191804 0.319644,-0.118769 0.57541,-0.283166 0.767215,-0.49321 0.191804,-0.210041 0.287705,-0.43387 0.287705,-0.671312 0,-0.182642 -0.0685,-0.328806 -0.205502,-0.43841 -0.137011,-0.109604 -0.392772,-0.205503 -0.767216,-0.287705 -0.36537,-0.0822 -0.922543,-0.173564 -1.671434,-0.274007 z m 4.50679,-0.685011 c 0.256023,-0.07304 0.434127,-0.164404 0.534311,-0.274007 0.109605,-0.109604 0.173822,-0.242066 0.191804,-0.397307 0.0274,-0.155243 0.04109,-0.415546 0.04109,-0.780916 v -6.726834 c 0,-0.283167 -0.03168,-0.474971 -0.09591,-0.575411 -0.06336,-0.100433 -0.196083,-0.150704 -0.397308,-0.150704 -0.04539,0 -0.150701,0.0092 -0.315106,0.0274 l -0.04109,-0.0274 0.0548,-0.465808 c 0.767215,-0.109604 1.443666,-0.242066 2.02764,-0.397308 l 0.0822,0.178103 c -0.10019,0.155243 -0.191804,1.132585 -0.274005,2.93186 -0.07277,1.799273 -0.109604,3.70361 -0.109604,5.713012 0,0.274006 0.03683,0.470348 0.109604,0.589111 0.07364,0.118771 0.196941,0.178104 0.369908,0.178104 l 0.479508,-0.0274 0.0274,0.0548 -0.109604,0.589111 c -0.602813,-0.0274 -1.008683,-0.04109 -1.219324,-0.04109 -0.30997,0 -0.780917,0.0548 -1.411128,0.164404 z m 6.071789,0.56171 c -0.520609,0 -0.982136,-0.127846 -1.383727,-0.383609 -0.402446,-0.255766 -0.717551,-0.611972 -0.945318,-1.06862 -0.219205,-0.465809 -0.328807,-0.995581 -0.328807,-1.58923 0,-0.639376 0.137011,-1.223865 0.411007,-1.753635 0.28257,-0.53885 0.666177,-0.95902 1.150824,-1.260427 0.483792,-0.310567 1.022383,-0.465808 1.616632,-0.465808 0.511191,0 0.967582,0.127845 1.370028,0.383607 0.411008,0.255767 0.726114,0.616512 0.945316,1.082321 0.22777,0.456648 0.34251,0.981881 0.34251,1.575531 0,0.639376 -0.14214,1.228488 -0.42471,1.767336 -0.274004,0.529772 -0.653332,0.949857 -1.137123,1.260426 -0.484647,0.301405 -1.023237,0.452108 -1.616632,0.452108 z m 0.38361,-0.671312 c 0.51119,0 0.917916,-0.205506 1.219324,-0.616515 0.301405,-0.420169 0.452108,-0.986419 0.452108,-1.698832 0,-0.538849 -0.0822,-1.018358 -0.246606,-1.438527 -0.164403,-0.429249 -0.397306,-0.762679 -0.698714,-1.000122 -0.292842,-0.237443 -0.62593,-0.356206 -1.000119,-0.356206 -0.512048,0 -0.917918,0.210042 -1.219324,0.630212 -0.301406,0.42017 -0.452108,0.990958 -0.452108,1.712535 0,0.538847 0.0822,1.018358 0.246603,1.438528 0.164404,0.42017 0.392172,0.748977 0.685014,0.986419 0.291988,0.228366 0.630212,0.342508 1.013822,0.342508 z m 6.110311,0.671312 c -0.62079,0 -1.0592,-0.1233 -1.315216,-0.369908 -0.25517,-0.255766 -0.38361,-0.685013 -0.38361,-1.287824 v -3.370267 c 0,-0.246606 -0.0548,-0.420171 -0.1644,-0.520611 -0.10961,-0.100444 -0.31511,-0.155242 -0.61651,-0.164404 l -0.0548,-0.0822 0.0685,-0.411008 c 0.26544,-0.127846 0.52061,-0.283169 0.76721,-0.46581 0.25603,-0.191804 0.461526,-0.356206 0.616516,-0.493209 0.1644,-0.146161 0.26972,-0.242067 0.3151,-0.287707 l 0.27401,0.109604 c -0.009,0.04565 -0.0223,0.155242 -0.0411,0.328807 -0.018,0.173566 -0.0411,0.406469 -0.0685,0.698715 l 2.01394,-0.04111 0.0411,0.04111 -0.1233,0.726113 -1.98654,-0.04109 c -0.0634,1.004657 -0.0959,2.146404 -0.0959,3.425067 0,0.465808 0.0779,0.794617 0.2329,0.986421 0.16441,0.191802 0.44355,0.287705 0.83572,0.287705 0.13701,0 0.27401,-0.01824 0.41101,-0.0548 0.13701,-0.03655 0.25174,-0.07303 0.34251,-0.109604 0.0916,-0.04565 0.1507,-0.07303 0.1781,-0.0822 l 0.13701,0.356206 c -0.0548,0.04565 -0.17297,0.132464 -0.35621,0.260306 -0.17297,0.127845 -0.36477,0.255766 -0.57541,0.383607 -0.20037,0.11877 -0.35107,0.178104 -0.45211,0.178104 z m 2.35816,-0.56171 c 0.27401,-0.07304 0.47009,-0.178105 0.58912,-0.315108 0.11817,-0.146159 0.1781,-0.337967 0.1781,-0.575411 v -3.479868 c 0,-0.493211 -0.16954,-0.739815 -0.50691,-0.739815 -0.0642,0 -0.13272,0.0092 -0.20551,0.0274 -0.0736,0.0092 -0.11902,0.01824 -0.137,0.0274 l 0.0548,-0.506911 c 0.38361,-0.0548 0.77578,-0.127845 1.17823,-0.219205 0.411,-0.09136 0.67559,-0.150703 0.79461,-0.178102 l 0.0685,0.164403 c -0.0822,0.191803 -0.15584,0.780915 -0.2192,1.767334 -0.0642,0.977257 -0.0959,2.004779 -0.0959,3.082561 0,0.264844 0.0359,0.461272 0.1096,0.589112 0.0728,0.11877 0.19608,0.178104 0.36991,0.178104 0.10018,0 0.19608,-0.0045 0.2877,-0.01365 0.0908,-0.0092 0.15499,-0.01365 0.19181,-0.01365 l 0.0274,0.0548 -0.1096,0.589112 c -0.0822,-0.0092 -0.23805,-0.01824 -0.46581,-0.0274 -0.22863,-0.0092 -0.47951,-0.01365 -0.75352,-0.01365 -0.23804,0 -0.51205,0.02286 -0.82201,0.0685 -0.30141,0.04565 -0.49835,0.07767 -0.58912,0.09589 z m 1.15083,-7.576251 c -0.21064,0 -0.37505,-0.06851 -0.49321,-0.205505 -0.11903,-0.13701 -0.17811,-0.301406 -0.17811,-0.493208 0,-0.219206 0.0771,-0.406471 0.23291,-0.561712 0.15498,-0.164403 0.34679,-0.246607 0.57541,-0.246607 0.20979,0 0.37419,0.06851 0.49321,0.205505 0.11817,0.13701 0.1781,0.301406 0.1781,0.49321 0,0.219205 -0.0779,0.411008 -0.2329,0.575412 -0.15584,0.15524 -0.34765,0.232905 -0.57541,0.232905 z m 4.40036,8.137961 c -0.292,0 -0.56171,-0.02286 -0.80832,-0.0685 -0.23719,-0.03655 -0.42471,-0.07766 -0.56172,-0.1233 -0.13701,-0.04565 -0.22348,-0.07767 -0.2603,-0.09591 l -0.0411,-0.09591 c 0.0274,-0.137011 0.0591,-0.42017 0.0959,-0.849415 0.0368,-0.429248 0.0591,-0.758054 0.0685,-0.986421 l 0.47951,-0.06851 c 0,0.602812 0.10022,1.02752 0.30142,1.274126 0.20121,0.246605 0.54372,0.369908 1.02751,0.369908 0.34679,0 0.63963,-0.07767 0.87682,-0.232907 0.23719,-0.155239 0.35621,-0.347043 0.35621,-0.575411 0,-0.228367 -0.10962,-0.433871 -0.32881,-0.616512 -0.20979,-0.191803 -0.63022,-0.456647 -1.26043,-0.794617 -0.52061,-0.264841 -0.89993,-0.534308 -1.13713,-0.808315 -0.23717,-0.274004 -0.35619,-0.575411 -0.35619,-0.904217 0,-0.36537 0.10961,-0.694176 0.3288,-0.98642 0.2192,-0.301405 0.52062,-0.534311 0.90422,-0.698714 0.38361,-0.173566 0.8126,-0.260305 1.28782,-0.260305 0.21921,0 0.429,0.01824 0.63022,0.0548 0.20123,0.0274 0.36563,0.05934 0.49321,0.09589 0.12757,0.03656 0.20978,0.05934 0.2466,0.0685 l 0.0274,0.0685 c -0.018,0.09136 -0.0591,0.301406 -0.12329,0.630212 -0.0642,0.319645 -0.10962,0.666774 -0.13701,1.04122 l -0.50691,0.04109 c 0,-0.0274 0.004,-0.0822 0.0137,-0.164403 0.01,-0.0822 0.0136,-0.159864 0.0136,-0.232905 0,-0.328806 -0.0916,-0.56625 -0.27401,-0.712414 -0.17381,-0.155241 -0.45639,-0.232904 -0.84942,-0.232904 -0.31082,0 -0.57541,0.07304 -0.79461,0.219205 -0.20978,0.146159 -0.3151,0.324267 -0.3151,0.53431 0,0.219203 0.0916,0.424708 0.274,0.616512 0.1918,0.191803 0.49749,0.397308 0.91791,0.616512 0.73983,0.39277 1.24245,0.726114 1.50704,1.00012 0.274,0.264844 0.411,0.570873 0.411,0.917918 0,0.347046 -0.11388,0.671313 -0.3425,0.97272 -0.22863,0.301405 -0.53859,0.543472 -0.93161,0.726114 -0.38362,0.173564 -0.79463,0.260306 -1.23303,0.260306 z m 5.99215,0 c -0.62165,0 -1.06007,-0.1233 -1.31523,-0.369908 -0.25602,-0.255766 -0.3836,-0.685013 -0.3836,-1.287824 v -3.370267 c 0,-0.246606 -0.0548,-0.420171 -0.16441,-0.520611 -0.10962,-0.100444 -0.3151,-0.155242 -0.6165,-0.164404 l -0.0548,-0.0822 0.0685,-0.411008 c 0.26459,-0.127846 0.52061,-0.283169 0.76722,-0.46581 0.25517,-0.191804 0.46066,-0.356206 0.6165,-0.493209 0.16442,-0.146161 0.26888,-0.242067 0.31512,-0.287707 l 0.27401,0.109604 c -0.01,0.04565 -0.0231,0.155242 -0.0411,0.328807 -0.0189,0.173566 -0.0411,0.406469 -0.0685,0.698715 l 2.01394,-0.04111 0.0411,0.04111 -0.1233,0.726113 -1.98655,-0.04109 c -0.0642,1.004657 -0.0959,2.146404 -0.0959,3.425067 0,0.465808 0.077,0.794617 0.2329,0.986421 0.16441,0.191802 0.44269,0.287705 0.83572,0.287705 0.13701,0 0.274,-0.01824 0.411,-0.0548 0.13701,-0.03655 0.25089,-0.07303 0.34251,-0.109604 0.0907,-0.04565 0.15071,-0.07303 0.17811,-0.0822 l 0.13701,0.356206 c -0.0548,0.04565 -0.17382,0.132464 -0.35621,0.260306 -0.17383,0.127845 -0.36563,0.255766 -0.57541,0.383607 -0.20122,0.11877 -0.35192,0.178104 -0.45211,0.178104 z" />
    <path
       style="stroke-width:0.856267"
       inkscape:connector-curvature="0"
       id="path2705"
       fill="#147d64"
       d="m 58.505424,33.81545 h 58.399296 v 0.753514 H 58.505424 Z" />
    <path
       style="stroke-width:0.856267"
       inkscape:connector-curvature="0"
       id="path2707"
       fill="#147d64"
       d="m 25.699865,45.298846 v 0.676451 h -2.945557 v 2.037914 h 2.384702 v 0.650763 h -2.384702 v 2.093575 h 2.945557 v 0.676449 h -3.780418 v -6.135152 z m 2.089721,3.91314 -1.459935,-2.114979 h 0.732107 c 0.06285,0 0.1085,0.01006 0.137011,0.02997 0.02861,0.01995 0.05429,0.04855 0.07707,0.08564 l 1.061771,1.626907 c 0.02569,-0.07989 0.06285,-0.159866 0.111314,-0.239755 l 0.933331,-1.370026 c 0.02861,-0.03999 0.05711,-0.07133 0.08562,-0.09419 0.02861,-0.02569 0.06421,-0.03853 0.107041,-0.03853 h 0.702141 l -1.459938,2.072167 1.519876,2.264825 h -0.732111 c -0.06276,0 -0.112679,-0.01568 -0.14985,-0.04709 -0.03424,-0.03424 -0.06276,-0.07133 -0.08561,-0.111314 l -1.09174,-1.699691 c -0.01994,0.0828 -0.04992,0.156955 -0.08991,0.22263 l -1.010396,1.477061 c -0.02852,0.03999 -0.05993,0.07707 -0.09419,0.111314 -0.03134,0.03143 -0.07561,0.04709 -0.132721,0.04709 h -0.68073 z m 3.300138,3.690512 v -5.805491 h 0.453822 c 0.108499,0 0.176991,0.05283 0.205504,0.158409 l 0.06421,0.513761 c 0.185553,-0.225456 0.396709,-0.406728 0.633639,-0.543731 0.239755,-0.13701 0.515215,-0.205504 0.826297,-0.205504 0.248318,0 0.473773,0.04855 0.676452,0.145561 0.202677,0.09419 0.375301,0.235473 0.518042,0.423852 0.142739,0.185554 0.252598,0.416745 0.329662,0.693577 0.07707,0.276832 0.11559,0.595105 0.11559,0.954736 0,0.319646 -0.04281,0.617969 -0.128446,0.894801 -0.08561,0.274004 -0.208329,0.512303 -0.368194,0.714982 -0.159865,0.199766 -0.356806,0.358177 -0.590825,0.475229 -0.231192,0.114134 -0.492353,0.171253 -0.783483,0.171253 -0.268268,0 -0.498091,-0.04427 -0.689295,-0.132719 -0.18838,-0.08845 -0.355351,-0.214068 -0.500916,-0.376759 v 1.91804 z m 1.930881,-5.266043 c -0.248317,0 -0.466664,0.05711 -0.655043,0.171253 -0.185553,0.114136 -0.356807,0.27546 -0.513759,0.483791 v 2.097854 c 0.139829,0.188379 0.292585,0.321101 0.458101,0.398164 0.168429,0.07707 0.355353,0.11559 0.560855,0.11559 0.402446,0 0.712158,-0.144105 0.92905,-0.432415 0.216893,-0.288305 0.325382,-0.699313 0.325382,-1.233025 0,-0.282567 -0.02569,-0.525148 -0.07707,-0.727826 -0.04855,-0.202678 -0.119881,-0.368195 -0.214069,-0.496635 -0.09418,-0.131266 -0.209783,-0.226909 -0.346787,-0.28685 -0.13701,-0.05994 -0.292586,-0.08991 -0.466665,-0.08991 z m 5.978971,3.797543 H 38.66135 c -0.07423,0 -0.134175,-0.0114 -0.179815,-0.03424 -0.04571,-0.02286 -0.07569,-0.07133 -0.08991,-0.14556 l -0.08563,-0.402446 c -0.114225,0.102754 -0.225541,0.195485 -0.333944,0.278287 -0.1085,0.07989 -0.222629,0.148394 -0.342505,0.205504 -0.119881,0.0542 -0.248319,0.09564 -0.385322,0.124155 -0.134176,0.02851 -0.284024,0.04281 -0.44954,0.04281 -0.168427,0 -0.326836,-0.02286 -0.475228,-0.06851 -0.145561,-0.04855 -0.272635,-0.119879 -0.381039,-0.214066 -0.1085,-0.09418 -0.195572,-0.212612 -0.26116,-0.355352 -0.06285,-0.14556 -0.09419,-0.316817 -0.09419,-0.51376 0,-0.171253 0.04711,-0.335399 0.141286,-0.492353 0.09419,-0.159864 0.245406,-0.301149 0.453822,-0.423852 0.211154,-0.122699 0.486617,-0.222629 0.826297,-0.299693 0.339595,-0.07989 0.754886,-0.125611 1.245869,-0.13701 v -0.338224 c 0,-0.336769 -0.07278,-0.590825 -0.218348,-0.762079 -0.14274,-0.174076 -0.355351,-0.26116 -0.63792,-0.26116 -0.185553,0 -0.342507,0.02424 -0.470945,0.07278 -0.125611,0.04565 -0.235475,0.09848 -0.329663,0.158409 -0.09136,0.05711 -0.171254,0.109858 -0.239756,0.158409 -0.06567,0.04565 -0.131355,0.06851 -0.196941,0.06851 -0.05137,0 -0.0971,-0.0129 -0.137011,-0.03853 -0.03717,-0.02851 -0.06714,-0.06276 -0.08991,-0.102753 l -0.13701,-0.244035 c 0.239755,-0.231193 0.498005,-0.403903 0.774921,-0.518042 0.276832,-0.114136 0.583632,-0.171254 0.920487,-0.171254 0.242582,0 0.458103,0.03999 0.646481,0.119881 0.18838,0.07989 0.346789,0.191203 0.475228,0.333942 0.128446,0.142741 0.225457,0.315364 0.291132,0.518042 0.06559,0.202679 0.09848,0.425309 0.09848,0.667888 z m -1.977977,-0.466664 c 0.134086,0 0.25688,-0.0129 0.368195,-0.03853 0.111315,-0.02852 0.215437,-0.06705 0.312538,-0.115591 0.09984,-0.05137 0.19403,-0.112769 0.282568,-0.184098 0.09127,-0.07133 0.179816,-0.152673 0.265443,-0.244037 v -0.903361 c -0.351069,0.0114 -0.649395,0.03999 -0.8948,0.08564 -0.245491,0.04281 -0.445259,0.09993 -0.599387,0.171253 -0.154128,0.07133 -0.266898,0.155583 -0.338226,0.2526 -0.06851,0.09702 -0.102754,0.205502 -0.102754,0.325382 0,0.114133 0.0185,0.212609 0.05567,0.29541 0.03708,0.0828 0.087,0.151302 0.149851,0.205504 0.06276,0.05137 0.13701,0.08991 0.222628,0.115592 0.08564,0.02286 0.178361,0.03424 0.278287,0.03424 z m 3.132482,0.466664 v -4.336991 h 0.453822 c 0.108488,0 0.176989,0.05283 0.205503,0.158409 l 0.05994,0.470947 c 0.18838,-0.208329 0.398165,-0.376757 0.629357,-0.505198 0.234103,-0.128445 0.503828,-0.19266 0.809174,-0.19266 0.236927,0 0.445257,0.03999 0.625073,0.119881 0.182727,0.07707 0.333946,0.188378 0.453822,0.333943 0.12279,0.142741 0.215522,0.315365 0.278287,0.518042 0.06285,0.20268 0.09419,0.426678 0.09419,0.672169 v 2.761462 H 43.001173 V 48.67254 c 0,-0.328206 -0.07562,-0.582262 -0.226911,-0.762076 -0.148396,-0.182643 -0.376759,-0.274006 -0.685015,-0.274006 -0.225454,0 -0.436696,0.0542 -0.633636,0.16269 -0.194032,0.108499 -0.373847,0.255425 -0.539448,0.440977 v 3.193877 z m 7.81061,0 c -0.108488,0 -0.17699,-0.05283 -0.205505,-0.158408 l -0.06851,-0.526605 c -0.185553,0.225456 -0.398165,0.406726 -0.63792,0.543731 -0.236928,0.134174 -0.509478,0.201222 -0.817734,0.201222 -0.248318,0 -0.47386,-0.04709 -0.676453,-0.141285 -0.202678,-0.09702 -0.375387,-0.2383 -0.518041,-0.423852 -0.142739,-0.185553 -0.252599,-0.416747 -0.329662,-0.693578 -0.07707,-0.276831 -0.115589,-0.595106 -0.115589,-0.954737 0,-0.319645 0.04281,-0.616514 0.128444,-0.890518 0.08562,-0.276831 0.208329,-0.516587 0.368194,-0.719264 0.16269,-0.202679 0.359633,-0.361088 0.590825,-0.475228 0.231192,-0.117045 0.493723,-0.175535 0.787765,-0.175535 0.265443,0 0.492353,0.04565 0.680732,0.137011 0.188379,0.08846 0.35672,0.214066 0.505198,0.376756 v -2.406109 h 0.762078 v 6.306406 z m -1.47706,-0.556573 c 0.248318,0 0.465209,-0.05711 0.650763,-0.171253 0.188379,-0.114135 0.361002,-0.275462 0.518042,-0.483791 v -2.097854 c -0.139921,-0.188379 -0.294043,-0.319644 -0.462384,-0.393882 -0.165602,-0.07707 -0.3497,-0.11559 -0.552293,-0.11559 -0.405357,0 -0.716439,0.144105 -0.933332,0.432414 -0.216977,0.288306 -0.325382,0.699314 -0.325382,1.233025 0,0.282567 0.02424,0.525149 0.07278,0.727827 0.04847,0.199767 0.119879,0.365368 0.214066,0.496634 0.09419,0.128444 0.209786,0.22263 0.346788,0.282568 0.137009,0.05994 0.293956,0.08991 0.470947,0.08991 z m 4.055194,-3.780418 v 4.336991 h -0.762077 v -4.336991 z m 0.171254,-1.361464 c 0,0.07423 -0.01568,0.144104 -0.04711,0.209785 -0.02851,0.06276 -0.0685,0.11988 -0.119879,0.171252 -0.04847,0.04855 -0.105583,0.0871 -0.171253,0.115605 -0.06559,0.02852 -0.13554,0.04281 -0.209787,0.04281 -0.07416,0 -0.144104,-0.01425 -0.209785,-0.04281 -0.06276,-0.02851 -0.11988,-0.06705 -0.171251,-0.115605 -0.04847,-0.05137 -0.087,-0.108488 -0.115591,-0.171252 -0.02851,-0.06567 -0.04281,-0.135539 -0.04281,-0.209785 0,-0.07423 0.01425,-0.144106 0.04281,-0.209785 0.02861,-0.06851 0.06713,-0.126991 0.115591,-0.175536 0.05137,-0.05137 0.108499,-0.09136 0.171251,-0.119881 0.06567,-0.02851 0.13563,-0.04281 0.209785,-0.04281 0.07423,0 0.144195,0.01425 0.209787,0.04281 0.06567,0.02851 0.122789,0.06851 0.171253,0.119881 0.05137,0.04855 0.09136,0.10704 0.119879,0.175536 0.03143,0.06567 0.04711,0.135539 0.04711,0.209785 z m 1.171887,5.698455 v -4.336991 h 0.453822 c 0.108499,0 0.176989,0.05283 0.205502,0.158409 l 0.05995,0.470947 c 0.188377,-0.208329 0.398163,-0.376757 0.629355,-0.505198 0.234018,-0.128445 0.503741,-0.19266 0.809173,-0.19266 0.236928,0 0.445258,0.03999 0.625074,0.119881 0.182642,0.07707 0.333945,0.188378 0.453822,0.333943 0.122701,0.142741 0.215522,0.315365 0.278286,0.518042 0.06276,0.20268 0.09419,0.426678 0.09419,0.672169 v 2.761462 H 54.733063 V 48.67254 c 0,-0.328206 -0.07561,-0.582262 -0.226912,-0.762076 -0.148394,-0.182643 -0.376757,-0.274006 -0.685013,-0.274006 -0.225454,0 -0.436696,0.0542 -0.633637,0.16269 -0.194116,0.108499 -0.373932,0.255425 -0.539449,0.440977 v 3.193877 z m 6.217954,-4.409774 c 0.188379,0 0.363914,0.0214 0.526605,0.06421 0.165517,0.03999 0.315363,0.09992 0.44954,0.179816 h 1.177366 v 0.282568 c 0,0.09419 -0.05994,0.154127 -0.179815,0.179817 l -0.492354,0.06851 c 0.09702,0.185552 0.145559,0.392426 0.145559,0.620794 0,0.211239 -0.04145,0.403899 -0.124154,0.577979 -0.07998,0.171254 -0.19266,0.318276 -0.338225,0.440978 -0.14274,0.1227 -0.313993,0.216892 -0.513759,0.282569 -0.196943,0.06567 -0.413921,0.09848 -0.650764,0.09848 -0.202678,0 -0.393884,-0.02422 -0.5737,-0.07278 -0.09136,0.05711 -0.161319,0.118424 -0.209785,0.184097 -0.04573,0.06567 -0.06851,0.1299 -0.06851,0.192661 0,0.102753 0.04135,0.18127 0.124155,0.235473 0.08271,0.05137 0.19266,0.08845 0.329662,0.111313 0.13701,0.02286 0.292503,0.03708 0.466666,0.04281 0.17408,0.0057 0.351069,0.01568 0.530885,0.02997 0.182642,0.0114 0.361002,0.03279 0.535167,0.06421 0.17408,0.03143 0.329664,0.0828 0.466665,0.154128 0.137011,0.07133 0.246864,0.169798 0.329664,0.295412 0.08271,0.12561 0.124156,0.288306 0.124156,0.488073 0,0.185553 -0.04709,0.365369 -0.141285,0.539447 -0.09136,0.17408 -0.224085,0.328209 -0.398165,0.462385 -0.174165,0.137009 -0.386777,0.245491 -0.637918,0.325381 -0.25123,0.0828 -0.535168,0.124156 -0.851987,0.124156 -0.316817,0 -0.595106,-0.03143 -0.834859,-0.09419 -0.23693,-0.06276 -0.433871,-0.147031 -0.590825,-0.252601 -0.157039,-0.105571 -0.275461,-0.228365 -0.355351,-0.368195 -0.07707,-0.136993 -0.11559,-0.281111 -0.11559,-0.432413 0,-0.214068 0.06705,-0.395339 0.201223,-0.543729 0.13701,-0.151303 0.323926,-0.27118 0.560855,-0.359634 -0.12279,-0.05711 -0.221258,-0.132719 -0.295412,-0.226909 -0.07142,-0.09702 -0.107041,-0.225456 -0.107041,-0.385321 0,-0.06276 0.0114,-0.126991 0.03424,-0.192661 0.02277,-0.06851 0.05703,-0.135539 0.102753,-0.201221 0.04847,-0.06567 0.107041,-0.128446 0.175535,-0.188379 0.0685,-0.05993 0.148395,-0.112771 0.239756,-0.15841 -0.214068,-0.11988 -0.382496,-0.278286 -0.505199,-0.475228 -0.119881,-0.199766 -0.179815,-0.432416 -0.179815,-0.697857 0,-0.211243 0.0399,-0.402445 0.119879,-0.573699 0.08271,-0.17408 0.196943,-0.3211 0.342506,-0.440978 0.145561,-0.1227 0.31819,-0.216891 0.518042,-0.282568 0.202593,-0.06567 0.423853,-0.09848 0.663608,-0.09848 z m 1.352901,4.645247 c 0,-0.108499 -0.02997,-0.195485 -0.08991,-0.261159 -0.05995,-0.06567 -0.141286,-0.11559 -0.244038,-0.149851 -0.102753,-0.03708 -0.221258,-0.06421 -0.35535,-0.08135 -0.134175,-0.01713 -0.275461,-0.02851 -0.423852,-0.03424 -0.14847,-0.0085 -0.299693,-0.01713 -0.453822,-0.02569 -0.154128,-0.0085 -0.301148,-0.02422 -0.440976,-0.04709 -0.162693,0.07707 -0.295413,0.171253 -0.398165,0.282569 -0.09992,0.111314 -0.14985,0.244034 -0.14985,0.398162 0,0.09702 0.02422,0.186924 0.07277,0.269726 0.05137,0.08561 0.128445,0.158409 0.231193,0.218347 0.102753,0.06276 0.231191,0.111316 0.38532,0.145561 0.156953,0.03708 0.34105,0.05565 0.552292,0.05565 0.205505,0 0.3896,-0.01859 0.552292,-0.05565 0.16269,-0.03708 0.299693,-0.08991 0.411008,-0.15841 0.114135,-0.0685 0.201223,-0.149851 0.261162,-0.244035 0.05995,-0.09418 0.08991,-0.198397 0.08991,-0.312538 z M 58.10392,49.314738 c 0.154129,0 0.289676,-0.0214 0.406727,-0.06421 0.11988,-0.04281 0.219718,-0.102753 0.299694,-0.179815 0.07989,-0.07707 0.139831,-0.168428 0.179816,-0.274006 0.0399,-0.108499 0.05994,-0.226911 0.05994,-0.35535 0,-0.265443 -0.08134,-0.476684 -0.244036,-0.633638 -0.159865,-0.156953 -0.393883,-0.235474 -0.702138,-0.235474 -0.305431,0 -0.539448,0.07852 -0.70214,0.235474 -0.159865,0.156954 -0.239754,0.368195 -0.239754,0.633638 0,0.128445 0.01996,0.246861 0.05995,0.35535 0.04281,0.105582 0.104113,0.196942 0.184097,0.274006 0.07989,0.07707 0.17836,0.136996 0.295412,0.179815 0.11697,0.04281 0.251144,0.06421 0.402445,0.06421 z m 5.840597,3.399381 c -0.02569,0.05711 -0.05858,0.102754 -0.09848,0.13701 -0.03716,0.03424 -0.09564,0.05137 -0.175535,0.05137 h -0.565136 l 0.792047,-1.721098 -1.789597,-4.084394 h 0.659325 c 0.06559,0 0.116969,0.01713 0.154128,0.05137 0.03708,0.03143 0.06421,0.06705 0.08135,0.107041 l 1.160242,2.731492 c 0.02569,0.06276 0.04709,0.12561 0.06421,0.188378 0.01995,0.06276 0.03708,0.12699 0.05137,0.19266 0.01996,-0.06567 0.0399,-0.1299 0.05995,-0.19266 0.01995,-0.06276 0.04281,-0.12699 0.0685,-0.19266 l 1.125992,-2.72721 c 0.01713,-0.04565 0.04565,-0.0828 0.08564,-0.111315 0.04281,-0.03143 0.08845,-0.0471 0.13701,-0.0471 h 0.60795 z m 4.756736,-5.685614 c 0.316817,0 0.602212,0.05283 0.856266,0.158409 0.25688,0.105571 0.473773,0.255425 0.650762,0.449541 0.179818,0.194115 0.31682,0.42959 0.411009,0.70642 0.09702,0.274006 0.145561,0.580807 0.145561,0.920487 0,0.342507 -0.04855,0.650764 -0.145561,0.924769 -0.09418,0.274004 -0.231191,0.508023 -0.411009,0.702139 -0.176989,0.194115 -0.393882,0.343962 -0.650762,0.44954 -0.254054,0.102753 -0.539449,0.154128 -0.856266,0.154128 -0.31682,0 -0.603671,-0.05137 -0.86055,-0.154128 -0.254054,-0.105582 -0.470946,-0.255425 -0.650761,-0.44954 -0.179818,-0.194116 -0.318276,-0.428135 -0.415291,-0.702139 -0.09702,-0.274005 -0.14556,-0.582262 -0.14556,-0.924769 0,-0.33968 0.04855,-0.646481 0.14556,-0.920487 0.09702,-0.27683 0.235473,-0.512305 0.415291,-0.70642 0.179815,-0.194116 0.396707,-0.343964 0.650761,-0.449541 0.256879,-0.105582 0.54373,-0.158409 0.86055,-0.158409 z m 0,3.870327 c 0.428133,0 0.747777,-0.14274 0.959018,-0.428133 0.211241,-0.288306 0.316819,-0.689295 0.316819,-1.203055 0,-0.516587 -0.105583,-0.919033 -0.316819,-1.207338 -0.211241,-0.288305 -0.530885,-0.432415 -0.959018,-0.432415 -0.216894,0 -0.405272,0.03708 -0.565137,0.111316 -0.159864,0.07423 -0.293957,0.181272 -0.402446,0.321099 -0.105571,0.139831 -0.185552,0.312538 -0.239755,0.518042 -0.05137,0.20268 -0.07707,0.432414 -0.07707,0.689296 0,0.25688 0.02569,0.486617 0.07707,0.689295 0.05419,0.202678 0.134175,0.373932 0.239755,0.51376 0.1085,0.13701 0.242582,0.24258 0.402446,0.316818 0.159865,0.07423 0.348243,0.111315 0.565137,0.111315 z m 3.661911,-3.801825 v 2.765742 c 0,0.328208 0.07569,0.582261 0.22691,0.762078 0.151302,0.179815 0.379668,0.269724 0.685013,0.269724 0.22263,0 0.432415,-0.05283 0.629357,-0.15841 0.196942,-0.105572 0.378214,-0.2526 0.543729,-0.440978 v -3.198156 h 0.762079 v 4.336991 H 74.75643 c -0.1084,0 -0.176905,-0.05283 -0.205505,-0.158408 l -0.05993,-0.466667 c -0.188379,0.208331 -0.399533,0.376759 -0.633638,0.505199 -0.234018,0.12561 -0.502285,0.188378 -0.804891,0.188378 -0.236843,0 -0.44663,-0.03853 -0.629356,-0.115591 -0.179816,-0.07989 -0.331032,-0.191203 -0.453822,-0.333943 -0.122701,-0.142739 -0.215436,-0.315362 -0.278286,-0.518041 -0.05994,-0.202678 -0.08991,-0.426678 -0.08991,-0.67217 v -2.765743 z m 4.098691,4.336991 v -4.336991 h 0.436698 c 0.08271,0 0.139829,0.01567 0.171254,0.04709 0.03134,0.03143 0.05274,0.08564 0.06421,0.16269 l 0.05137,0.676452 c 0.148395,-0.302521 0.331034,-0.537994 0.548011,-0.706421 0.219717,-0.171255 0.476598,-0.256879 0.770641,-0.256879 0.119878,0 0.228279,0.01425 0.325381,0.04281 0.09702,0.02569 0.186922,0.06276 0.269724,0.111315 l -0.09848,0.569418 c -0.02004,0.07133 -0.06421,0.10704 -0.132719,0.10704 -0.03999,0 -0.101384,-0.0129 -0.184098,-0.03853 -0.0828,-0.02851 -0.198397,-0.04281 -0.346788,-0.04281 -0.265443,0 -0.488072,0.07707 -0.667888,0.231191 -0.17699,0.154129 -0.325382,0.378214 -0.445259,0.67217 v 2.76146 z m 9.009472,-6.135152 v 0.676451 h -2.945558 v 2.144949 h 2.517424 v 0.67645 h -2.517424 v 2.637302 h -0.83486 v -6.135152 z m 2.404226,1.729659 c 0.316818,0 0.601955,0.05283 0.856268,0.158409 0.25688,0.105571 0.473514,0.255425 0.650761,0.449541 0.179816,0.194115 0.316821,0.42959 0.411009,0.70642 0.09675,0.274006 0.145561,0.580807 0.145561,0.920487 0,0.342507 -0.04881,0.650764 -0.145561,0.924769 -0.09418,0.274004 -0.231193,0.508023 -0.411009,0.702139 -0.177247,0.194115 -0.393881,0.343962 -0.650761,0.44954 -0.254313,0.102753 -0.53945,0.154128 -0.856268,0.154128 -0.316818,0 -0.603668,-0.05137 -0.860548,-0.154128 -0.254311,-0.105582 -0.471204,-0.255425 -0.651021,-0.44954 -0.179815,-0.194116 -0.318273,-0.428135 -0.415288,-0.702139 -0.0971,-0.274005 -0.14556,-0.582262 -0.14556,-0.924769 0,-0.33968 0.04846,-0.646481 0.14556,-0.920487 0.09702,-0.27683 0.235473,-0.512305 0.415288,-0.70642 0.179817,-0.194116 0.39671,-0.343964 0.651021,-0.449541 0.25688,-0.105582 0.54373,-0.158409 0.860548,-0.158409 z m 0,3.870327 c 0.428134,0 0.747522,-0.14274 0.959019,-0.428133 0.210642,-0.288306 0.316819,-0.689295 0.316819,-1.203055 0,-0.516587 -0.106168,-0.919033 -0.316819,-1.207338 -0.211497,-0.288305 -0.530885,-0.432415 -0.959019,-0.432415 -0.217491,0 -0.40587,0.03708 -0.565136,0.111316 -0.160122,0.07423 -0.294557,0.181272 -0.402702,0.321099 -0.105659,0.139831 -0.185552,0.312538 -0.239756,0.518042 -0.05137,0.20268 -0.07707,0.432414 -0.07707,0.689296 0,0.25688 0.02569,0.486617 0.07707,0.689295 0.05421,0.202678 0.134085,0.373932 0.239756,0.51376 0.108146,0.13701 0.24258,0.24258 0.402702,0.316818 0.159266,0.07423 0.347645,0.111315 0.565136,0.111315 z m 3.002073,0.535166 v -4.336991 h 0.436697 c 0.08305,0 0.14043,0.01567 0.171253,0.04709 0.03168,0.03143 0.05308,0.08564 0.06421,0.16269 l 0.05137,0.676452 c 0.148996,-0.302521 0.331377,-0.537994 0.548011,-0.706421 0.22006,-0.171255 0.476941,-0.256879 0.77064,-0.256879 0.119881,0 0.228623,0.01425 0.325382,0.04281 0.09762,0.02569 0.187522,0.06276 0.269723,0.111315 l -0.09848,0.569418 c -0.01969,0.07133 -0.06421,0.10704 -0.132719,0.10704 -0.03939,0 -0.101041,-0.0129 -0.184098,-0.03853 -0.0822,-0.02851 -0.197797,-0.04281 -0.346788,-0.04281 -0.265442,0 -0.488072,0.07707 -0.667888,0.231191 -0.176391,0.154129 -0.325382,0.378214 -0.445258,0.67217 v 2.76146 z m 5.170996,-4.405493 c 0.259448,0 0.499202,0.04427 0.719263,0.13272 0.219206,0.08563 0.409296,0.21124 0.569419,0.376758 0.159265,0.16269 0.28342,0.365368 0.37248,0.607949 0.0908,0.239755 0.13701,0.513759 0.13701,0.822016 0,0.11988 -0.0129,0.199768 -0.0385,0.239755 -0.0257,0.03999 -0.0745,0.05995 -0.14557,0.05995 h -2.885615 c 0.0051,0.274005 0.04281,0.512304 0.111316,0.714983 0.0685,0.202678 0.162692,0.372477 0.282568,0.509478 0.11988,0.134175 0.26202,0.235475 0.428133,0.303977 0.16526,0.06567 0.35107,0.09848 0.556574,0.09848 0.190948,0 0.355351,-0.0214 0.492354,-0.06421 0.139575,-0.04565 0.259449,-0.09418 0.359632,-0.145559 0.09933,-0.05137 0.182386,-0.09848 0.248318,-0.141285 0.06851,-0.04565 0.126735,-0.06851 0.175535,-0.06851 0.06251,0 0.111315,0.02424 0.145555,0.07277 l 0.21407,0.278285 c -0.0942,0.114136 -0.20722,0.214066 -0.338225,0.299695 -0.131865,0.0828 -0.273149,0.151301 -0.423852,0.205504 -0.148995,0.0542 -0.303119,0.09419 -0.462385,0.11988 -0.16012,0.02852 -0.31853,0.04281 -0.475228,0.04281 -0.299693,0 -0.577123,-0.04992 -0.830579,-0.14985 -0.251743,-0.102754 -0.470089,-0.251143 -0.655043,-0.445259 -0.183241,-0.19694 -0.325381,-0.439523 -0.428136,-0.727827 -0.102753,-0.288305 -0.154126,-0.619338 -0.154126,-0.99327 0,-0.302519 0.04537,-0.585087 0.137009,-0.847703 0.09419,-0.262618 0.227767,-0.489529 0.402445,-0.680733 0.173824,-0.194116 0.386177,-0.345333 0.637921,-0.453821 0.250886,-0.111315 0.533453,-0.166973 0.847704,-0.166973 z m 0.01713,0.560854 c -0.368194,0 -0.65847,0.107041 -0.869111,0.321101 -0.211498,0.211241 -0.342506,0.505197 -0.393883,0.881956 h 2.359015 c 0,-0.176992 -0.02483,-0.338227 -0.07277,-0.483791 -0.04881,-0.148395 -0.119881,-0.275462 -0.214067,-0.381039 -0.09419,-0.1085 -0.209785,-0.191205 -0.346788,-0.248318 -0.134429,-0.05995 -0.288562,-0.08991 -0.462384,-0.08991 z m 3.604022,-0.492352 v 4.336991 h -0.76207 v -4.336991 z m 0.17126,-1.361464 c 0,0.07423 -0.0163,0.144104 -0.0471,0.209785 -0.0291,0.06276 -0.0685,0.11988 -0.11988,0.171252 -0.0488,0.04855 -0.10618,0.0871 -0.17125,0.115605 -0.0659,0.02852 -0.13614,0.04281 -0.20979,0.04281 -0.0745,0 -0.1447,-0.01425 -0.20978,-0.04281 -0.0634,-0.02851 -0.11988,-0.06705 -0.17126,-0.115605 -0.0488,-0.05137 -0.0873,-0.108488 -0.11559,-0.171252 -0.0291,-0.06567 -0.0428,-0.135539 -0.0428,-0.209785 0,-0.07423 0.0136,-0.144106 0.0428,-0.209785 0.0283,-0.06851 0.0668,-0.126991 0.11559,-0.175536 0.0514,-0.05137 0.10789,-0.09136 0.17126,-0.119881 0.0651,-0.02851 0.13528,-0.04281 0.20978,-0.04281 0.0736,0 0.14385,0.01425 0.20979,0.04281 0.0651,0.02851 0.12244,0.06851 0.17125,0.119881 0.0514,0.04855 0.0908,0.10704 0.11988,0.175536 0.0308,0.06567 0.0471,0.135539 0.0471,0.209785 z m 2.631306,1.288681 c 0.18837,0 0.36391,0.0214 0.5266,0.06421 0.16612,0.03999 0.31596,0.09992 0.44954,0.179816 h 1.17737 v 0.282568 c 0,0.09419 -0.0599,0.154127 -0.17982,0.179817 l -0.49235,0.06851 c 0.0976,0.185552 0.14556,0.392426 0.14556,0.620794 0,0.211239 -0.0411,0.403899 -0.12416,0.577979 -0.0796,0.171254 -0.19266,0.318276 -0.33822,0.440978 -0.14214,0.1227 -0.3134,0.216892 -0.51376,0.282569 -0.19695,0.06567 -0.41358,0.09848 -0.65077,0.09848 -0.20208,0 -0.39388,-0.02422 -0.5737,-0.07278 -0.0908,0.05711 -0.16097,0.118424 -0.20978,0.184097 -0.0454,0.06567 -0.0685,0.1299 -0.0685,0.192661 0,0.102753 0.042,0.18127 0.12415,0.235473 0.0831,0.05137 0.19266,0.08845 0.32967,0.111313 0.13701,0.02286 0.29284,0.03708 0.46666,0.04281 0.17468,0.0057 0.35107,0.01568 0.53089,0.02997 0.18324,0.0114 0.36134,0.03279 0.53517,0.06421 0.17467,0.03143 0.32966,0.0828 0.46666,0.154128 0.13701,0.07133 0.24746,0.169798 0.32966,0.295412 0.0831,0.12561 0.12416,0.288306 0.12416,0.488073 0,0.185553 -0.0471,0.365369 -0.14129,0.539447 -0.0908,0.17408 -0.22348,0.328209 -0.39816,0.462385 -0.17382,0.137009 -0.38618,0.245491 -0.63792,0.325381 -0.25089,0.0828 -0.53517,0.124156 -0.85198,0.124156 -0.31682,0 -0.59511,-0.03143 -0.83487,-0.09419 -0.23632,-0.06276 -0.43327,-0.147031 -0.59082,-0.252601 -0.1567,-0.105571 -0.27486,-0.228365 -0.35535,-0.368195 -0.0771,-0.136993 -0.11559,-0.281111 -0.11559,-0.432413 0,-0.214068 0.0677,-0.395339 0.20122,-0.543729 0.137,-0.151303 0.32453,-0.27118 0.56086,-0.359634 -0.12245,-0.05711 -0.22092,-0.132719 -0.29542,-0.226909 -0.0711,-0.09702 -0.10702,-0.225456 -0.10702,-0.385321 0,-0.06276 0.012,-0.126991 0.0342,-0.192661 0.0231,-0.06851 0.0574,-0.135539 0.10275,-0.201221 0.0488,-0.06567 0.10704,-0.128446 0.17554,-0.188379 0.0685,-0.05993 0.14899,-0.112771 0.23975,-0.15841 -0.21407,-0.11988 -0.38189,-0.278286 -0.5052,-0.475228 -0.11988,-0.199766 -0.17981,-0.432416 -0.17981,-0.697857 0,-0.211243 0.0402,-0.402445 0.11988,-0.573699 0.0831,-0.17408 0.19694,-0.3211 0.34251,-0.440978 0.14556,-0.1227 0.31853,-0.216891 0.51804,-0.282568 0.20293,-0.06567 0.42385,-0.09848 0.6636,-0.09848 z m 1.3529,4.645247 c 0,-0.108499 -0.03,-0.195485 -0.0899,-0.261159 -0.0599,-0.06567 -0.14128,-0.11559 -0.24403,-0.149851 -0.10276,-0.03708 -0.22092,-0.06421 -0.35536,-0.08135 -0.13357,-0.01713 -0.27486,-0.02851 -0.42385,-0.03424 -0.14814,-0.0085 -0.29969,-0.01713 -0.45382,-0.02569 -0.15413,-0.0085 -0.30055,-0.02422 -0.44098,-0.04709 -0.16269,0.07707 -0.29541,0.171253 -0.39816,0.282569 -0.0993,0.111314 -0.14985,0.244034 -0.14985,0.398162 0,0.09702 0.0248,0.186924 0.0728,0.269726 0.0514,0.08561 0.12844,0.158409 0.23119,0.218347 0.10275,0.06276 0.23119,0.111316 0.38532,0.145561 0.15755,0.03708 0.34165,0.05565 0.55229,0.05565 0.2055,0 0.3896,-0.01859 0.55229,-0.05565 0.16269,-0.03708 0.2997,-0.08991 0.41101,-0.15841 0.11474,-0.0685 0.20122,-0.149851 0.26116,-0.244035 0.0599,-0.09418 0.0899,-0.198397 0.0899,-0.312538 z m -1.35291,-2.354733 c 0.15413,0 0.29028,-0.0214 0.40673,-0.06421 0.11988,-0.04281 0.22006,-0.102753 0.29969,-0.179815 0.0805,-0.07707 0.14043,-0.168428 0.17982,-0.274006 0.0402,-0.108499 0.0599,-0.226911 0.0599,-0.35535 0,-0.265443 -0.0813,-0.476684 -0.24403,-0.633638 -0.15927,-0.156953 -0.39388,-0.235474 -0.70214,-0.235474 -0.30483,0 -0.53945,0.07852 -0.70214,0.235474 -0.15926,0.156954 -0.23975,0.368195 -0.23975,0.633638 0,0.128445 0.0206,0.246861 0.0599,0.35535 0.0428,0.105582 0.10446,0.196942 0.1841,0.274006 0.0805,0.07707 0.17896,0.136996 0.29541,0.179815 0.1173,0.04281 0.25174,0.06421 0.40245,0.06421 z m 2.91388,2.11926 v -4.336991 h 0.45382 c 0.10789,0 0.17639,0.05283 0.2055,0.158409 l 0.0599,0.470947 c 0.18838,-0.208329 0.39816,-0.376757 0.62935,-0.505198 0.23376,-0.128445 0.50349,-0.19266 0.80917,-0.19266 0.23633,0 0.44527,0.03999 0.62507,0.119881 0.1824,0.07707 0.33396,0.188378 0.45383,0.333943 0.12245,0.142741 0.21493,0.315365 0.2783,0.518042 0.0625,0.20268 0.0941,0.426678 0.0941,0.672169 v 2.761462 h -0.76208 V 48.67254 c 0,-0.328206 -0.0763,-0.582262 -0.22691,-0.762076 -0.149,-0.182643 -0.37676,-0.274006 -0.68501,-0.274006 -0.22606,0 -0.4367,0.0542 -0.63364,0.16269 -0.19438,0.108499 -0.3742,0.255425 -0.53945,0.440977 v 3.193877 z m 5.82262,-6.135152 h 0.6636 c 0.0745,0 0.13442,0.01859 0.17982,0.05565 0.0454,0.03708 0.0797,0.08417 0.10276,0.141283 l 1.73395,4.328431 c 0.0402,0.09702 0.0754,0.202678 0.10707,0.316818 0.0343,0.114134 0.0667,0.232648 0.0985,0.355352 0.0257,-0.122701 0.053,-0.241211 0.0813,-0.355352 0.0317,-0.114136 0.0669,-0.219803 0.10708,-0.316818 l 1.72537,-4.328431 c 0.0197,-0.04855 0.0539,-0.09273 0.10276,-0.132719 0.0488,-0.04281 0.10873,-0.06421 0.17983,-0.06421 h 0.66789 l -2.5003,6.135152 h -0.74924 z m 7.67301,1.729659 c 0.31681,0 0.60194,0.05283 0.85626,0.158409 0.25688,0.105571 0.47352,0.255425 0.65077,0.449541 0.17981,0.194115 0.31682,0.42959 0.41101,0.70642 0.0968,0.274006 0.14556,0.580807 0.14556,0.920487 0,0.342507 -0.0488,0.650764 -0.14556,0.924769 -0.0941,0.274004 -0.2312,0.508023 -0.41101,0.702139 -0.17725,0.194115 -0.39389,0.343962 -0.65077,0.44954 -0.25432,0.102753 -0.53945,0.154128 -0.85626,0.154128 -0.31683,0 -0.60367,-0.05137 -0.86056,-0.154128 -0.25431,-0.105582 -0.47095,-0.255425 -0.65076,-0.44954 -0.17981,-0.194116 -0.31853,-0.428135 -0.41528,-0.702139 -0.0977,-0.274005 -0.14556,-0.582262 -0.14556,-0.924769 0,-0.33968 0.048,-0.646481 0.14556,-0.920487 0.0968,-0.27683 0.23547,-0.512305 0.41528,-0.70642 0.17981,-0.194116 0.39645,-0.343964 0.65076,-0.449541 0.25689,-0.105582 0.54373,-0.158409 0.86056,-0.158409 z m 0,3.870327 c 0.42813,0 0.74752,-0.14274 0.95901,-0.428133 0.21064,-0.288306 0.31681,-0.689295 0.31681,-1.203055 0,-0.516587 -0.10619,-0.919033 -0.31681,-1.207338 -0.21149,-0.288305 -0.53088,-0.432415 -0.95901,-0.432415 -0.2175,0 -0.40588,0.03708 -0.56514,0.111316 -0.16012,0.07423 -0.29456,0.181272 -0.40245,0.321099 -0.10619,0.139831 -0.18582,0.312538 -0.23975,0.518042 -0.0514,0.20268 -0.077,0.432414 -0.077,0.689296 0,0.25688 0.0256,0.486617 0.077,0.689295 0.0539,0.202678 0.13357,0.373932 0.23975,0.51376 0.10785,0.13701 0.24233,0.24258 0.40245,0.316818 0.15926,0.07423 0.34764,0.111315 0.56514,0.111315 z m 5.96047,-3.031186 c -0.0222,0.03143 -0.0454,0.05567 -0.0685,0.07279 -0.0223,0.01713 -0.0557,0.02569 -0.0985,0.02569 -0.0428,0 -0.0899,-0.01713 -0.14128,-0.05137 -0.048,-0.03708 -0.11132,-0.07707 -0.18838,-0.119881 -0.077,-0.04281 -0.17125,-0.08135 -0.28258,-0.11559 -0.10785,-0.03708 -0.24232,-0.05565 -0.40244,-0.05565 -0.21064,0 -0.39816,0.03853 -0.56085,0.11559 -0.16269,0.07423 -0.2997,0.182642 -0.41101,0.325381 -0.10785,0.142741 -0.19095,0.315363 -0.24832,0.518042 -0.0539,0.202678 -0.0813,0.429589 -0.0813,0.680732 0,0.262618 0.0299,0.496635 0.09,0.702139 0.06,0.202678 0.14471,0.373932 0.2526,0.51376 0.10873,0.137009 0.23975,0.242581 0.39389,0.31682 0.15755,0.07133 0.33308,0.10704 0.52659,0.10704 0.18581,0 0.33823,-0.0214 0.4581,-0.06421 0.11989,-0.04565 0.22007,-0.09564 0.29971,-0.14985 0.0804,-0.05419 0.14556,-0.102754 0.19694,-0.14556 0.0514,-0.04565 0.10277,-0.06851 0.15413,-0.06851 0.066,0 0.11473,0.02424 0.14556,0.07278 l 0.21406,0.278286 c -0.18838,0.231192 -0.42385,0.40099 -0.70641,0.50948 -0.28258,0.105571 -0.58057,0.15841 -0.89482,0.15841 -0.27058,0 -0.52317,-0.04992 -0.75778,-0.149851 -0.2312,-0.09992 -0.43242,-0.244037 -0.60368,-0.432414 -0.17125,-0.191205 -0.30654,-0.42531 -0.40673,-0.702141 -0.0968,-0.276829 -0.14556,-0.592278 -0.14556,-0.946174 0,-0.322556 0.0445,-0.620794 0.13272,-0.894798 0.0916,-0.274007 0.22264,-0.509481 0.39389,-0.706422 0.17469,-0.199767 0.38875,-0.35535 0.6422,-0.466664 0.25431,-0.111316 0.54545,-0.166973 0.87339,-0.166973 0.30312,0 0.57114,0.04992 0.8049,0.14985 0.23461,0.09702 0.44098,0.235473 0.62079,0.41529 z m 4.22397,3.566352 h -0.33823 c -0.0736,0 -0.13357,-0.0114 -0.17981,-0.03424 -0.0454,-0.02286 -0.0754,-0.07133 -0.09,-0.14556 l -0.0856,-0.402446 c -0.11388,0.102754 -0.22521,0.195485 -0.33396,0.278287 -0.10785,0.07989 -0.22262,0.148394 -0.3425,0.205504 -0.11988,0.0542 -0.24832,0.09564 -0.38532,0.124155 -0.13357,0.02851 -0.28343,0.04281 -0.44954,0.04281 -0.16783,0 -0.32623,-0.02286 -0.47522,-0.06851 -0.14557,-0.04855 -0.27231,-0.119879 -0.38105,-0.214066 -0.10785,-0.09418 -0.19523,-0.212612 -0.26115,-0.355352 -0.0625,-0.14556 -0.0941,-0.316817 -0.0941,-0.51376 0,-0.171253 0.0471,-0.335399 0.14128,-0.492353 0.0942,-0.159864 0.24575,-0.301149 0.45384,-0.423852 0.21149,-0.122699 0.48721,-0.222629 0.82629,-0.299693 0.33994,-0.07989 0.75522,-0.125611 1.24587,-0.13701 v -0.338224 c 0,-0.336769 -0.0728,-0.590825 -0.21836,-0.762079 -0.14214,-0.174076 -0.35534,-0.26116 -0.63791,-0.26116 -0.18496,0 -0.34251,0.02424 -0.47095,0.07278 -0.12501,0.04565 -0.23546,0.09848 -0.32965,0.158409 -0.0907,0.05711 -0.17126,0.109858 -0.23977,0.158409 -0.0651,0.04565 -0.131,0.06851 -0.19693,0.06851 -0.0514,0 -0.0968,-0.0129 -0.13703,-0.03853 -0.0368,-0.02851 -0.0667,-0.06276 -0.0899,-0.102753 l -0.13701,-0.244035 c 0.23975,-0.231193 0.49835,-0.403903 0.77492,-0.518042 0.27743,-0.114136 0.58398,-0.171254 0.92048,-0.171254 0.24319,0 0.45811,0.03999 0.64649,0.119881 0.18838,0.07989 0.34679,0.191203 0.47523,0.333942 0.12845,0.142741 0.22605,0.315364 0.29113,0.518042 0.066,0.202679 0.0984,0.425309 0.0984,0.667888 z m -1.97798,-0.466664 c 0.13443,0 0.25687,-0.0129 0.36819,-0.03853 0.11132,-0.02852 0.21577,-0.06705 0.31254,-0.115591 0.10022,-0.05137 0.19437,-0.112769 0.28257,-0.184098 0.0916,-0.07133 0.17982,-0.152673 0.26545,-0.244037 v -0.903361 c -0.35108,0.0114 -0.64906,0.03999 -0.89481,0.08564 -0.24489,0.04281 -0.44526,0.09993 -0.59939,0.171253 -0.15412,0.07133 -0.26629,0.155583 -0.33821,0.2526 -0.0685,0.09702 -0.10277,0.205502 -0.10277,0.325382 0,0.114133 0.0189,0.212609 0.0557,0.29541 0.0377,0.0828 0.0873,0.151302 0.14984,0.205504 0.0633,0.05137 0.13701,0.08991 0.22264,0.115592 0.0856,0.02286 0.17895,0.03424 0.27828,0.03424 z m 3.15878,0.466664 v -6.306405 h 0.76634 v 2.594488 c 0.17982,-0.208329 0.38532,-0.375301 0.61651,-0.500916 0.23376,-0.128445 0.50092,-0.19266 0.80062,-0.19266 0.25088,0 0.47779,0.04709 0.68072,0.141286 0.20209,0.09418 0.37505,0.235474 0.51805,0.423852 0.14213,0.185554 0.2526,0.416745 0.32966,0.693576 0.077,0.274005 0.11558,0.590825 0.11558,0.950456 0,0.319646 -0.0428,0.617968 -0.12844,0.8948 -0.0856,0.274004 -0.20978,0.512304 -0.37247,0.714982 -0.16013,0.199767 -0.35706,0.358178 -0.59082,0.475229 -0.23119,0.114134 -0.49235,0.171254 -0.78348,0.171254 -0.28001,0 -0.51805,-0.0542 -0.71499,-0.162691 -0.19437,-0.108499 -0.36391,-0.259707 -0.50948,-0.453823 l -0.0386,0.393883 c -0.0231,0.108499 -0.0891,0.162692 -0.19695,0.162692 z m 1.93515,-3.797543 c -0.24833,0 -0.46667,0.05711 -0.65505,0.171253 -0.18581,0.114136 -0.35706,0.27546 -0.51376,0.483791 v 2.097854 c 0.13701,0.188379 0.28771,0.321101 0.45382,0.398164 0.16783,0.07707 0.35536,0.11559 0.56085,0.11559 0.40503,0 0.71585,-0.144105 0.93335,-0.432415 0.21663,-0.288305 0.32537,-0.699313 0.32537,-1.233025 0,-0.282567 -0.0257,-0.525148 -0.077,-0.727826 -0.0488,-0.202678 -0.11988,-0.368195 -0.21406,-0.496635 -0.0941,-0.131266 -0.20979,-0.226909 -0.34679,-0.28685 -0.13701,-0.05994 -0.29285,-0.08991 -0.46667,-0.08991 z m 3.48158,-0.539448 v 2.765742 c 0,0.328208 0.0754,0.582261 0.22691,0.762078 0.1507,0.179815 0.37933,0.269724 0.68502,0.269724 0.22262,0 0.43241,-0.05283 0.62935,-0.15841 0.19694,-0.105572 0.37761,-0.2526 0.54373,-0.440978 v -3.198156 h 0.76208 v 4.336991 h -0.45383 c -0.10873,0 -0.17725,-0.05283 -0.2055,-0.158408 l -0.0599,-0.466667 c -0.18837,0.208331 -0.39987,0.376759 -0.63363,0.505199 -0.23461,0.12561 -0.50263,0.188378 -0.80489,0.188378 -0.2372,0 -0.44698,-0.03853 -0.62936,-0.115591 -0.17982,-0.07989 -0.33138,-0.191203 -0.45382,-0.333943 -0.1233,-0.142739 -0.21577,-0.315362 -0.27828,-0.518041 -0.0599,-0.202678 -0.0899,-0.426678 -0.0899,-0.67217 v -2.765743 z m 4.9458,-1.969414 v 6.306405 h -0.76208 v -6.306405 z m 4.52879,6.306405 h -0.33822 c -0.0746,0 -0.1344,-0.0114 -0.17981,-0.03424 -0.0462,-0.02286 -0.0762,-0.07133 -0.0898,-0.14556 l -0.0856,-0.402446 c -0.11476,0.102754 -0.22605,0.195485 -0.33395,0.278287 -0.10873,0.07989 -0.22264,0.148394 -0.34251,0.205504 -0.11984,0.0542 -0.24832,0.09564 -0.38531,0.124155 -0.13444,0.02851 -0.28429,0.04281 -0.44954,0.04281 -0.16869,0 -0.32709,-0.02286 -0.47523,-0.06851 -0.14556,-0.04855 -0.27315,-0.119879 -0.38104,-0.214066 -0.10874,-0.09418 -0.1961,-0.212612 -0.26117,-0.355352 -0.0633,-0.14556 -0.0941,-0.316817 -0.0941,-0.51376 0,-0.171253 0.0471,-0.335399 0.14128,-0.492353 0.0942,-0.159864 0.2449,-0.301149 0.45382,-0.423852 0.21065,-0.122699 0.48636,-0.222629 0.8263,-0.299693 0.33906,-0.07989 0.75435,-0.125611 1.24586,-0.13701 v -0.338224 c 0,-0.336769 -0.0727,-0.590825 -0.21834,-0.762079 -0.14297,-0.174076 -0.35537,-0.26116 -0.63794,-0.26116 -0.18579,0 -0.34248,0.02424 -0.47093,0.07278 -0.12587,0.04565 -0.23547,0.09848 -0.32966,0.158409 -0.0916,0.05711 -0.17125,0.109858 -0.23975,0.158409 -0.066,0.04565 -0.13187,0.06851 -0.19694,0.06851 -0.0514,0 -0.0976,-0.0129 -0.137,-0.03853 -0.0377,-0.02851 -0.0676,-0.06276 -0.0899,-0.102753 l -0.137,-0.244035 c 0.23976,-0.231193 0.4975,-0.403903 0.77492,-0.518042 0.27658,-0.114136 0.58311,-0.171254 0.92048,-0.171254 0.24232,0 0.4581,0.03999 0.6465,0.119881 0.18837,0.07989 0.34678,0.191203 0.47521,0.333942 0.1284,0.142741 0.22521,0.315364 0.29113,0.518042 0.0651,0.202679 0.0983,0.425309 0.0983,0.667888 z m -1.97797,-0.466664 c 0.13357,0 0.25688,-0.0129 0.36818,-0.03853 0.11131,-0.02852 0.21493,-0.06705 0.31255,-0.115591 0.0993,-0.05137 0.19351,-0.112769 0.28258,-0.184098 0.0907,-0.07133 0.17981,-0.152673 0.26543,-0.244037 v -0.903361 c -0.35108,0.0114 -0.64991,0.03999 -0.8948,0.08564 -0.24575,0.04281 -0.44526,0.09993 -0.59938,0.171253 -0.15414,0.07133 -0.26715,0.155583 -0.33823,0.2526 -0.0685,0.09702 -0.10276,0.205502 -0.10276,0.325382 0,0.114133 0.018,0.212609 0.0557,0.29541 0.0368,0.0828 0.0864,0.151302 0.14985,0.205504 0.0625,0.05137 0.13701,0.08991 0.22262,0.115592 0.0856,0.02286 0.1781,0.03424 0.27828,0.03424 z m 3.13223,0.466664 v -4.336991 h 0.43669 c 0.0831,0 0.13965,0.01567 0.17126,0.04709 0.0316,0.03143 0.053,0.08564 0.0642,0.16269 l 0.0515,0.676452 c 0.14819,-0.302521 0.33137,-0.537994 0.548,-0.706421 0.22007,-0.171255 0.47693,-0.256879 0.77064,-0.256879 0.11986,0 0.22864,0.01425 0.32539,0.04281 0.0967,0.02569 0.18667,0.06276 0.26973,0.111315 l -0.0986,0.569418 c -0.0197,0.07133 -0.0642,0.10704 -0.13275,0.10704 -0.0402,0 -0.10111,-0.0129 -0.18409,-0.03853 -0.0831,-0.02851 -0.19866,-0.04281 -0.34678,-0.04281 -0.26547,0 -0.48808,0.07707 -0.66791,0.231191 -0.17725,0.154129 -0.32537,0.378214 -0.44525,0.67217 v 2.76146 z m 4.72487,1.280121 c -0.0256,0.05711 -0.0582,0.102754 -0.0985,0.13701 -0.0369,0.03424 -0.0951,0.05137 -0.17553,0.05137 h -0.56514 l 0.79205,-1.721098 -1.78959,-4.084394 h 0.65932 c 0.0659,0 0.1173,0.01713 0.15412,0.05137 0.0377,0.03143 0.0642,0.06705 0.0813,0.107041 l 1.16022,2.731492 c 0.0256,0.06276 0.0471,0.12561 0.0642,0.188378 0.0206,0.06276 0.0377,0.12699 0.0515,0.19266 0.0206,-0.06567 0.0402,-0.1299 0.06,-0.19266 0.0206,-0.06276 0.0428,-0.12699 0.0685,-0.19266 l 1.12599,-2.72721 c 0.0171,-0.04565 0.0462,-0.0828 0.0856,-0.111315 0.0428,-0.03143 0.0891,-0.0471 0.13694,-0.0471 h 0.60795 z" />
    <path
       sodipodi:nodetypes="csccccsccccsccccsccccccccccccccccccc"
       inkscape:connector-curvature="0"
       id="path2808"
       d="m 17.406475,10.195312 c -0.113012,-3.99e-4 0.0313,2.555231 -1.04737,3.64052 -1.182413,1.189667 -3.5914,0.92357 -3.591527,1.047451 h -0.857422 v 45.682614 l 0.857422,0.09557 c -4.04e-4,0.114318 2.563423,0.01477 3.589534,1.095753 1.107081,1.166282 0.686799,3.514698 0.810138,3.514262 l -0.02389,0.857422 h 137.83327 l 0.11321,-0.857422 c 0.11325,-1.15e-4 -0.25449,-3.671839 1.1429,-5.127554 1.52582,-1.589514 4.82239,-0.97956 4.82195,-1.103211 l 0.85547,0.07548 0,-43.625457 -0.85547,0.07548 c -1.2e-4,-0.122395 -2.39763,0.02418 -3.64946,-1.333157 -1.16327,-1.261328 -1.18272,-4.037632 -1.29645,-4.037748 V 9.3398438 H 17.502891 Z m -1.023321,3.663784 1.023321,-3.663784 H 156.10878 l 1.20982,3.773828 3.73609,1.597077 v 43.474502 l -0.58854,-0.126315 -4.23341,1.229524 -1.22647,3.733898 0.0836,1.393658 H 17.16725 L 16.399307,61.75922 12.767578,60.661469 V 14.883283 Z"
       style="color:#000000;font-style:normal;font-variant:normal;font-weight:normal;font-stretch:normal;font-size:medium;line-height:normal;font-family:sans-serif;font-variant-ligatures:normal;font-variant-position:normal;font-variant-caps:normal;font-variant-numeric:normal;font-variant-alternates:normal;font-variant-east-asian:normal;font-feature-settings:normal;font-variation-settings:normal;text-indent:0;text-align:start;text-decoration:none;text-decoration-line:none;text-decoration-style:solid;text-decoration-color:#000000;letter-spacing:normal;word-spacing:normal;text-transform:none;writing-mode:lr-tb;direction:ltr;text-orientation:mixed;dominant-baseline:auto;baseline-shift:baseline;text-anchor:start;white-space:normal;shape-padding:0;shape-margin:0;inline-size:0;clip-rule:nonzero;display:inline;overflow:visible;visibility:visible;opacity:1;isolation:auto;mix-blend-mode:normal;color-interpolation:sRGB;color-interpolation-filters:linearRGB;solid-color:#000000;solid-opacity:1;vector-effect:none;fill:#147d64;fill-opacity:1;fill-rule:nonzero;stroke:none;stroke-width:0.856267;stroke-linecap:butt;stroke-linejoin:round;stroke-miterlimit:4;stroke-dasharray:none;stroke-dashoffset:0;stroke-opacity:1;paint-order:normal;color-rendering:auto;image-rendering:auto;shape-rendering:auto;text-rendering:auto;enable-background:accumulate;stop-color:#000000;stop-opacity:1" />
    <circle
       d="M 18.007388,9.8634954 A 6.9641304,6.9641304 0 0 1 12.081667,15.492379"
       sodipodi:arc-type="arc"
       sodipodi:open="true"
       sodipodi:end="1.4381777"
       sodipodi:start="0.18398735"
       sodipodi:ry="6.9641304"
       sodipodi:rx="6.9641304"
       sodipodi:cy="8.5894003"
       sodipodi:cx="11.160798"
       sodipodi:type="arc"
       id="path2743"
       style="font-variation-settings:normal;opacity:1;vector-effect:none;fill:none;fill-opacity:1;fill-rule:evenodd;stroke:#147d64;stroke-width:1.07174;stroke-linecap:butt;stroke-linejoin:round;stroke-miterlimit:4;stroke-dasharray:none;stroke-dashoffset:0;stroke-opacity:1;paint-order:normal;stop-color:#000000;stop-opacity:1" />
    <circle
       transform="scale(-1)"
       d="m -154.52954,-65.474289 a 6.9641304,6.9641304 0 0 1 -2.13057,5.013562 6.9641304,6.9641304 0 0 1 -5.08808,1.945916"
       sodipodi:arc-type="arc"
       sodipodi:open="true"
       sodipodi:end="1.6073516"
       sodipodi:start="0"
       sodipodi:ry="6.9641304"
       sodipodi:rx="6.9641304"
       sodipodi:cy="-65.474289"
       sodipodi:cx="-161.49367"
       sodipodi:type="arc"
       style="font-variation-settings:normal;opacity:1;vector-effect:none;fill:none;fill-opacity:1;fill-rule:evenodd;stroke:#147d64;stroke-width:1.07174;stroke-linecap:butt;stroke-linejoin:miter;stroke-miterlimit:4;stroke-dasharray:none;stroke-dashoffset:0;stroke-opacity:1;stop-color:#000000;stop-opacity:1"
       id="path2743-9" />
    <path
       transform="rotate(-90)"
       style="font-variation-settings:normal;opacity:1;vector-effect:none;fill:none;fill-opacity:1;fill-rule:evenodd;stroke:#147d64;stroke-width:1.07174;stroke-linecap:butt;stroke-linejoin:round;stroke-miterlimit:4;stroke-dasharray:none;stroke-dashoffset:0;stroke-opacity:1;paint-order:stroke markers fill;stop-color:#000000;stop-opacity:1"
       id="path2743-1"
       sodipodi:type="arc"
       sodipodi:cx="-66.796921"
       sodipodi:cy="10.904839"
       sodipodi:rx="6.9641304"
       sodipodi:ry="6.9641304"
       sodipodi:start="0.18398735"
       sodipodi:end="1.4381777"
       sodipodi:open="true"
       sodipodi:arc-type="arc"
       d="m -59.950331,12.178934 a 6.9641304,6.9641304 0 0 1 -5.925721,5.628883" />
    <path
       transform="rotate(90)"
       style="font-variation-settings:normal;opacity:1;vector-effect:none;fill:none;fill-opacity:1;fill-rule:evenodd;stroke:#147d64;stroke-width:1.07174;stroke-linecap:butt;stroke-linejoin:round;stroke-miterlimit:4;stroke-dasharray:none;stroke-dashoffset:0;stroke-opacity:1;paint-order:stroke markers fill;stop-color:#000000;stop-opacity:1"
       id="path2743-0"
       sodipodi:type="arc"
       sodipodi:cx="9.1564474"
       sodipodi:cy="-162.45361"
       sodipodi:rx="6.9641304"
       sodipodi:ry="6.9641304"
       sodipodi:start="0.18398735"
       sodipodi:end="1.4381777"
       sodipodi:open="true"
       sodipodi:arc-type="arc"
       d="m 16.003037,-161.17952 a 6.9641304,6.9641304 0 0 1 -5.925721,5.62889" />
  </g>
  <metadata
     id="metadata2757">
    <rdf:RDF>
      <cc:Work
         rdf:about="">
        <dc:format>image/svg+xml</dc:format>
        <dc:type
           rdf:resource="http://purl.org/dc/dcmitype/StillImage" />
        <dc:title></dc:title>
      </cc:Work>
    </rdf:RDF>
  </metadata>
  <defs
     id="defs2755" />
  <sodipodi:namedview
     inkscape:bbox-nodes="true"
     inkscape:bbox-paths="true"
     inkscape:snap-bbox="true"
     inkscape:snap-others="false"
     inkscape:snap-nodes="true"
     inkscape:document-rotation="0"
     pagecolor="#ffffff"
     bordercolor="#666666"
     borderopacity="1"
     objecttolerance="10"
     gridtolerance="10"
     guidetolerance="10"
     inkscape:pageopacity="0"
     inkscape:pageshadow="2"
     inkscape:window-width="1252"
     inkscape:window-height="729"
     id="namedview2753"
     showgrid="false"
     inkscape:zoom="26.498291"
     inkscape:cx="140.09549"
     inkscape:cy="6.5910951"
     inkscape:window-x="0"
     inkscape:window-y="23"
     inkscape:window-maximized="0"
     inkscape:current-layer="g2741" />
</svg>
