<?xml version="1.0" encoding="UTF-8" standalone="no"?>
<svg
   xmlns:dc="http://purl.org/dc/elements/1.1/"
   xmlns:cc="http://creativecommons.org/ns#"
   xmlns:rdf="http://www.w3.org/1999/02/22-rdf-syntax-ns#"
   xmlns:svg="http://www.w3.org/2000/svg"
   xmlns="http://www.w3.org/2000/svg"
   xmlns:sodipodi="http://sodipodi.sourceforge.net/DTD/sodipodi-0.dtd"
   xmlns:inkscape="http://www.inkscape.org/namespaces/inkscape"
   inkscape:version="1.0rc1 (09960d6, 2020-04-09)"
   sodipodi:docname="logo.svg"
   id="svg8"
   version="1.1"
   viewBox="0 0 43.65625 43.65625"
   height="165"
   width="165">
  <defs
     id="defs2">
    <rect
       id="rect841"
       height="35.897358"
       width="25.749695"
       y="76.107468"
       x="74.839012" />
  </defs>
  <sodipodi:namedview
     units="px"
     inkscape:window-maximized="0"
     inkscape:window-y="23"
     inkscape:window-x="0"
     inkscape:window-height="729"
     inkscape:window-width="1252"
     showgrid="false"
     inkscape:document-rotation="0"
     inkscape:current-layer="g872"
     inkscape:document-units="mm"
     inkscape:cy="93.219018"
     inkscape:cx="78.123815"
     inkscape:zoom="2.658477"
     inkscape:pageshadow="2"
     inkscape:pageopacity="0.0"
     borderopacity="1.0"
     bordercolor="#666666"
     pagecolor="#ffffff"
     id="base" />
  <metadata
     id="metadata5">
    <rdf:RDF>
      <cc:Work
         rdf:about="">
        <dc:format>image/svg+xml</dc:format>
        <dc:type
           rdf:resource="http://purl.org/dc/dcmitype/StillImage" />
        <dc:title />
      </cc:Work>
    </rdf:RDF>
  </metadata>
  <g
     id="layer1"
     inkscape:groupmode="layer"
     inkscape:label="Layer 1">
    <g
       transform="translate(-66.296326,-63.861945)"
       id="g872">
      <path
         id="path5206"
         d="M 88.125 63.861328 C 76.077494 63.861328 66.296875 73.641947 66.296875 85.689453 C 66.296873 97.736961 76.077492 107.51758 88.125 107.51758 C 100.17251 107.51758 109.95313 97.736962 109.95312 85.689453 C 109.95313 73.641946 100.17251 63.861326 88.125 63.861328 z M 88.125 65.185547 C 99.457548 65.185545 108.62891 74.356905 108.62891 85.689453 C 108.62891 97.022003 99.45755 106.19531 88.125 106.19531 C 76.792452 106.19531 67.619139 97.022002 67.619141 85.689453 C 67.619141 74.356906 76.792453 65.185547 88.125 65.185547 z "
         style="color:#000000;font-style:normal;font-variant:normal;font-weight:normal;font-stretch:normal;font-size:medium;line-height:normal;font-family:sans-serif;font-variant-ligatures:normal;font-variant-position:normal;font-variant-caps:normal;font-variant-numeric:normal;font-variant-alternates:normal;font-variant-east-asian:normal;font-feature-settings:normal;font-variation-settings:normal;text-indent:0;text-align:start;text-decoration:none;text-decoration-line:none;text-decoration-style:solid;text-decoration-color:#000000;letter-spacing:normal;word-spacing:normal;text-transform:none;writing-mode:lr-tb;direction:ltr;text-orientation:mixed;dominant-baseline:auto;baseline-shift:baseline;text-anchor:start;white-space:normal;shape-padding:0;shape-margin:0;inline-size:0;clip-rule:nonzero;display:inline;overflow:visible;visibility:visible;isolation:auto;mix-blend-mode:normal;color-interpolation:sRGB;color-interpolation-filters:linearRGB;solid-color:#000000;solid-opacity:1;vector-effect:none;fill:#147d64;fill-opacity:1;fill-rule:nonzero;stroke:none;stroke-width:1.32292;stroke-linecap:butt;stroke-linejoin:miter;stroke-miterlimit:4;stroke-dasharray:none;stroke-dashoffset:0;stroke-opacity:1;color-rendering:auto;image-rendering:auto;shape-rendering:auto;text-rendering:auto;enable-background:accumulate;stop-color:#000000;stop-opacity:1;opacity:1" />
      <g
         aria-label="P"
         transform="translate(1.1416121,-12.684579)"
         id="text839"
         style="font-size:28.2222px;line-height:1.25;font-family:Alegreya;-inkscape-font-specification:'Alegreya, Normal';white-space:pre;shape-inside:url(#rect841);stroke-width:15.875;stroke-miterlimit:4;stroke-dasharray:none">
        <path
           d="m 76.938871,101.10113 q 1.319388,-0.23989 1.739193,-0.68968 0.419806,-0.479775 0.419806,-1.769177 l 0.02999,-12.594162 q 0,-0.959555 -0.239889,-1.289402 -0.209903,-0.329847 -0.869597,-0.329847 -0.299861,0 -0.599722,0.02999 -0.299861,0.02999 -0.419805,0.02999 l -0.05997,-0.119944 0.209902,-1.319389 q 0.359834,0.02999 1.349375,0.05997 0.989541,0.02999 1.979082,0.02999 0.929569,0 2.099027,-0.02999 1.199444,-0.05997 1.679222,-0.08996 3.118554,0 4.76779,1.379361 1.649235,1.37936 1.649235,3.958165 0,1.679221 -0.989541,3.208512 -0.959555,1.499305 -2.548819,2.428875 -1.589263,0.929569 -3.328457,0.929569 h -2.518832 l -0.05997,2.938637 q 0,1.439333 0.08996,2.069041 0.08996,0.599725 0.329847,0.809625 0.269875,0.17992 0.899583,0.17992 0.509764,0 0.959555,-0.03 0.479778,-0.03 0.659695,-0.06 l 0.05997,0.11994 -0.269875,1.37936 q -0.299861,-0.03 -1.109486,-0.06 -0.779638,-0.03 -1.649235,-0.03 -1.199444,0 -2.818694,0.09 -1.589263,0.09 -1.649235,0.14993 z m 7.586483,-7.496522 q 1.799166,-0.299861 2.698749,-1.469319 0.929569,-1.169458 0.929569,-3.208512 0,-2.30893 -1.379361,-3.358443 -1.349374,-1.0795 -4.258026,-1.0795 -0.53975,0 -0.659694,0.05997 -0.119944,0.05997 -0.149931,0.359833 -0.269874,3.808235 -0.359833,8.246178 z"
           style="font-size:29.9861px;fill:#147d64;fill-opacity:1;stroke-width:15.875;stroke-miterlimit:4;stroke-dasharray:none"
           id="path1474" />
      </g>
      <g
         aria-label="g"
         id="text847"
         style="font-size:10.5833px;line-height:1.25;font-family:Alegreya;-inkscape-font-specification:'Alegreya, Normal';stroke-width:0.264583">
        <g
           style="opacity:1"
           id="g5214">
          <path
             id="path5216"
             d="m 98.061741,84.957241 c -0.335138,0.05291 -1.093609,0.132288 -2.275413,0.238124 l -0.105834,0.132292 c 0.705555,0.77611 1.058332,1.675692 1.058332,2.698746 0,0.846666 -0.238125,1.631596 -0.714374,2.354789 -0.45861,0.723193 -1.08479,1.296456 -1.878539,1.719789 -0.793749,0.405694 -1.666873,0.608541 -2.619372,0.608541 -0.511527,0 -1.005415,-0.07056 -1.481664,-0.211666 -0.405694,0.229305 -0.696735,0.440972 -0.873124,0.634999 -0.176389,0.194027 -0.264583,0.388055 -0.264583,0.582083 0,0.405694 0.273402,0.687916 0.820207,0.846665 0.546805,0.15875 1.40229,0.30868 2.566455,0.449791 1.146527,0.141111 2.072567,0.291042 2.778122,0.449791 0.705555,0.141111 1.314095,0.405694 1.825622,0.793749 0.511527,0.388055 0.767291,0.926041 0.767291,1.613957 0,0.77611 -0.3175,1.525763 -0.952499,2.248959 -0.61736,0.72319 -1.437567,1.30527 -2.460622,1.74624 -1.005415,0.45861 -2.046108,0.68792 -3.122079,0.68792 -1.252359,0 -2.240136,-0.3175 -2.96333,-0.9525 -0.705555,-0.61736 -1.058332,-1.47284 -1.058332,-2.566454 0.246945,-0.317499 0.599722,-0.687916 1.058332,-1.111249 0.476249,-0.423333 0.996596,-0.846665 1.56104,-1.269998 v -0.15875 c -0.917221,-0.15875 -1.622776,-0.458611 -2.116664,-0.899582 -0.493888,-0.440972 -0.749652,-1.005416 -0.767291,-1.693331 0.687916,-0.652638 1.428749,-1.217082 2.222498,-1.693331 v -0.105834 c -0.617361,-0.352777 -1.10243,-0.820207 -1.455207,-1.402289 -0.335139,-0.599722 -0.502708,-1.269999 -0.502708,-2.010831 0,-0.864305 0.220486,-1.658054 0.661458,-2.381247 0.458611,-0.740833 1.058332,-1.331735 1.799164,-1.772706 0.758471,-0.440972 1.578679,-0.661458 2.460622,-0.661458 0.405694,0 0.908402,0.05292 1.508123,0.15875 0.440972,0.08819 0.802569,0.132292 1.08479,0.132292 0.793749,-0.08819 2.010831,-0.352778 3.651246,-0.793749 l 0.07937,0.105833 z m -5.926659,6.588116 c 0.811388,0 1.446387,-0.255764 1.904998,-0.767291 0.476249,-0.511527 0.714374,-1.217081 0.714374,-2.116664 0,-1.023054 -0.282222,-1.852081 -0.846666,-2.48708 -0.564443,-0.634999 -1.296456,-0.952498 -2.196039,-0.952498 -0.811387,0 -1.455206,0.264583 -1.931455,0.793748 -0.458611,0.529166 -0.687916,1.24354 -0.687916,2.143123 0,1.005415 0.282222,1.825623 0.846665,2.460622 0.564444,0.61736 1.296457,0.92604 2.196039,0.92604 z m -1.269998,5.159369 c -0.529166,0.370416 -0.93486,0.77611 -1.217082,1.217081 -0.282222,0.458611 -0.423333,0.908402 -0.423333,1.349374 0,0.599719 0.255764,1.075969 0.767291,1.428749 0.511527,0.37041 1.190624,0.55562 2.037289,0.55562 0.670277,0 1.305276,-0.12347 1.904998,-0.37041 0.61736,-0.22931 1.111248,-0.54681 1.481664,-0.952502 0.370417,-0.405694 0.555625,-0.837846 0.555625,-1.296457 0,-0.352777 -0.132292,-0.634999 -0.396875,-0.846665 -0.264583,-0.211667 -0.758471,-0.396875 -1.481665,-0.555624 -0.705555,-0.15875 -1.781525,-0.335139 -3.227912,-0.529166 z"
             style="color:#000000;font-style:normal;font-variant:normal;font-weight:normal;font-stretch:normal;font-size:26.45830000000000126px;line-height:1.25;font-family:Alegreya;-inkscape-font-specification:'Alegreya, Normal';font-variant-ligatures:normal;font-variant-position:normal;font-variant-caps:normal;font-variant-numeric:normal;font-variant-alternates:normal;font-variant-east-asian:normal;font-feature-settings:normal;font-variation-settings:normal;text-indent:0;text-align:start;text-decoration:none;text-decoration-line:none;text-decoration-style:solid;text-decoration-color:#000000;letter-spacing:normal;word-spacing:normal;text-transform:none;writing-mode:lr-tb;direction:ltr;text-orientation:mixed;dominant-baseline:auto;baseline-shift:baseline;text-anchor:start;white-space:normal;shape-padding:0;shape-margin:0;inline-size:0;clip-rule:nonzero;display:inline;overflow:visible;visibility:visible;isolation:auto;mix-blend-mode:normal;color-interpolation:sRGB;color-interpolation-filters:linearRGB;solid-color:#000000;solid-opacity:1;vector-effect:none;fill:#147d64;fill-opacity:1;fill-rule:nonzero;stroke-width:0.264583;stroke-linecap:butt;stroke-linejoin:miter;stroke-miterlimit:4;stroke-dasharray:none;stroke-dashoffset:0;stroke-opacity:1.0;color-rendering:auto;image-rendering:auto;shape-rendering:auto;text-rendering:auto;enable-background:accumulate;stop-color:#000000;stop-opacity:1;stroke:none;" />
          <path
             id="path5218"
             d="M 98.326172 83.21875 L 98.238281 83.242188 C 96.603603 83.681617 95.393067 83.94223 94.613281 84.029297 C 94.345746 84.028512 93.994101 83.988664 93.5625 83.902344 L 93.5625 83.900391 L 93.560547 83.900391 C 92.955798 83.79367 92.446494 83.740234 92.029297 83.740234 C 91.125305 83.740234 90.279686 83.967751 89.501953 84.419922 L 89.5 84.419922 C 88.741499 84.871411 88.125458 85.478377 87.65625 86.236328 L 87.65625 86.238281 C 87.203083 86.981475 86.976563 87.800697 86.976562 88.6875 C 86.976562 89.448281 87.149639 90.1437 87.496094 90.763672 L 87.496094 90.765625 L 87.498047 90.767578 C 87.844811 91.339739 88.335417 91.789914 88.927734 92.146484 C 88.153779 92.618171 87.42502 93.166137 86.751953 93.804688 L 86.708984 93.84375 L 86.710938 93.904297 C 86.729369 94.623116 87.00464 95.228194 87.523438 95.691406 C 88.01579 96.131006 88.728353 96.408828 89.595703 96.576172 L 89.595703 96.589844 C 89.050535 97.000879 88.541289 97.410564 88.078125 97.822266 L 88.078125 97.824219 L 88.076172 97.824219 C 87.614146 98.250706 87.257723 98.624837 87.003906 98.951172 L 86.976562 98.988281 L 86.976562 99.033203 C 86.976562 100.15526 87.34539 101.05637 88.080078 101.69922 C 88.831607 102.35845 89.854902 102.68359 91.128906 102.68359 C 92.223673 102.68359 93.285014 102.45038 94.306641 101.98438 C 95.343681 101.53697 96.180891 100.94301 96.8125 100.20312 C 97.462071 99.462764 97.796875 98.680753 97.796875 97.869141 C 97.796875 97.148434 97.518078 96.561195 96.976562 96.150391 C 96.447854 95.749302 95.82005 95.47651 95.097656 95.332031 C 94.3857 95.172002 93.45821 95.022111 92.310547 94.880859 C 91.149808 94.740164 90.296414 94.588261 89.763672 94.433594 C 89.504758 94.358425 89.32169 94.25703 89.207031 94.138672 C 89.092372 94.020314 89.039062 93.887973 89.039062 93.714844 C 89.039062 93.560904 89.107907 93.400443 89.269531 93.222656 C 89.423813 93.052947 89.703055 92.85112 90.080078 92.634766 C 90.547138 92.766108 91.028532 92.841797 91.527344 92.841797 C 92.498625 92.841797 93.394188 92.634204 94.207031 92.21875 L 94.208984 92.216797 C 95.020142 91.78418 95.664051 91.194505 96.134766 90.453125 C 96.624057 89.710127 96.871094 88.898814 96.871094 88.027344 C 96.871094 87.014254 96.512673 86.115075 95.841797 85.337891 L 95.855469 85.320312 C 96.98816 85.218339 97.74522 85.141068 98.082031 85.087891 L 98.173828 85.074219 L 98.191406 84.982422 L 98.494141 83.443359 L 98.326172 83.21875 z M 98.208984 83.519531 L 97.951172 84.835938 C 97.60598 84.88738 96.909502 84.962888 95.775391 85.064453 L 95.71875 85.068359 L 95.505859 85.333984 L 95.582031 85.416016 C 96.268124 86.170717 96.607422 87.034702 96.607422 88.027344 C 96.607422 88.849205 96.37727 89.605205 95.914062 90.308594 L 95.912109 90.310547 C 95.46623 91.013665 94.860184 91.568974 94.085938 91.982422 C 93.311284 92.378356 92.461061 92.578125 91.527344 92.578125 C 91.027982 92.578125 90.545911 92.508539 90.082031 92.371094 L 90.029297 92.355469 L 89.980469 92.382812 C 89.56801 92.615941 89.267117 92.830781 89.074219 93.042969 C 88.883066 93.253237 88.775391 93.480728 88.775391 93.714844 C 88.775391 93.947408 88.858835 94.158402 89.017578 94.322266 C 89.176321 94.48613 89.403515 94.605872 89.691406 94.689453 C 90.252273 94.852286 91.109752 95.001052 92.277344 95.142578 C 93.421166 95.283357 94.344196 95.43262 95.042969 95.589844 L 95.044922 95.589844 L 95.046875 95.591797 C 95.735591 95.72954 96.324014 95.984355 96.818359 96.359375 C 97.299899 96.724681 97.533203 97.214015 97.533203 97.869141 C 97.533203 98.609171 97.2328 99.325685 96.613281 100.03125 L 96.611328 100.03125 C 96.008776 100.7371 95.207015 101.3078 94.199219 101.74219 L 94.197266 101.74219 L 94.197266 101.74414 C 93.208062 102.19536 92.186081 102.41992 91.128906 102.41992 C 89.898906 102.41992 88.94865 102.11002 88.253906 101.5 C 87.588248 100.91755 87.258593 100.11835 87.248047 99.078125 C 87.487077 98.776125 87.816047 98.425512 88.255859 98.019531 C 88.72855 97.599469 89.245614 97.178582 89.806641 96.757812 L 89.859375 96.71875 L 89.859375 96.380859 L 89.75 96.363281 C 88.849129 96.207361 88.168641 95.913267 87.699219 95.494141 C 87.244722 95.08834 87.029533 94.574001 87 93.945312 C 87.6636 93.323772 88.373151 92.777281 89.134766 92.320312 L 89.197266 92.28125 L 89.197266 92.023438 L 89.130859 91.986328 C 88.532135 91.6442 88.067624 91.194659 87.726562 90.632812 C 87.72608 90.632017 87.725092 90.631655 87.724609 90.630859 C 87.40216 90.052336 87.240234 89.406852 87.240234 88.6875 C 87.240234 87.846354 87.45471 87.079695 87.882812 86.376953 C 88.330573 85.653648 88.91217 85.078811 89.634766 84.648438 C 90.373975 84.218664 91.169402 84.003906 92.029297 84.003906 C 92.423487 84.003906 92.918978 84.057163 93.513672 84.162109 L 93.511719 84.160156 C 93.958013 84.249415 94.327045 84.294922 94.623047 84.294922 L 94.628906 84.294922 L 94.636719 84.294922 C 95.422669 84.207594 96.632463 83.940056 98.208984 83.519531 z M 91.710938 85.089844 C 90.870791 85.089844 90.18288 85.370802 89.681641 85.927734 L 89.679688 85.929688 C 89.196778 86.486891 88.960937 87.23614 88.960938 88.158203 C 88.960938 89.188375 89.252367 90.04612 89.839844 90.707031 L 89.841797 90.708984 C 90.429857 91.352175 91.204921 91.677734 92.134766 91.677734 C 92.972967 91.677734 93.652333 91.408271 94.136719 90.869141 L 94.138672 90.867188 C 94.640199 90.327494 94.886719 89.584057 94.886719 88.662109 C 94.886719 87.614726 94.593741 86.747304 94.005859 86.085938 C 93.418231 85.424856 92.641648 85.089844 91.710938 85.089844 z M 91.710938 85.353516 C 92.579393 85.353516 93.267335 85.652803 93.808594 86.261719 C 94.349601 86.870351 94.623047 87.663385 94.623047 88.662109 C 94.623047 89.538346 94.393254 90.20428 93.943359 90.6875 L 93.943359 90.689453 L 93.941406 90.689453 C 93.508681 91.172108 92.918353 91.412109 92.134766 91.412109 C 91.265446 91.412109 90.577937 91.120826 90.037109 90.529297 C 89.496495 89.920403 89.224609 89.13814 89.224609 88.158203 C 89.224609 87.281857 89.447289 86.604517 89.880859 86.103516 C 89.881233 86.103083 89.880485 86.101994 89.880859 86.101562 C 90.331918 85.601459 90.929316 85.353516 91.710938 85.353516 z M 90.832031 96.566406 L 90.789062 96.595703 C 90.248744 96.973926 89.830502 97.391184 89.537109 97.849609 L 89.535156 97.851562 C 89.243015 98.326292 89.091797 98.80229 89.091797 99.271484 C 89.091797 99.90785 89.375288 100.43407 89.914062 100.80664 C 89.914526 100.80698 89.915552 100.80631 89.916016 100.80664 C 90.455453 101.19671 91.164082 101.38867 92.029297 101.38867 C 92.715159 101.38867 93.367176 101.26087 93.982422 101.00781 L 93.984375 101.00781 C 94.615436 100.77276 95.127869 100.44403 95.513672 100.02148 C 95.900825 99.59746 96.103516 99.130946 96.103516 98.636719 C 96.103516 98.250869 95.950782 97.919609 95.658203 97.685547 C 95.360306 97.447229 94.853015 97.266134 94.121094 97.105469 C 93.407912 96.945003 92.331102 96.768501 90.882812 96.574219 L 90.832031 96.566406 z M 90.908203 96.845703 C 92.311832 97.035184 93.379656 97.209202 94.064453 97.363281 C 94.77892 97.520115 95.260919 97.707563 95.492188 97.892578 C 95.728776 98.081848 95.839844 98.317014 95.839844 98.636719 C 95.839844 99.059712 95.67204 99.456386 95.318359 99.84375 C 94.964251 100.23158 94.490256 100.53827 93.888672 100.76172 L 93.886719 100.76172 L 93.884766 100.76367 C 93.301088 101.00401 92.683327 101.12305 92.029297 101.12305 C 91.201924 101.12305 90.553757 100.94383 90.070312 100.59375 L 90.068359 100.5918 L 90.066406 100.5918 C 89.583721 100.25891 89.357422 99.833591 89.357422 99.271484 C 89.357422 98.859307 89.488231 98.434017 89.759766 97.992188 L 89.759766 97.990234 C 90.023165 97.579025 90.41204 97.199522 90.908203 96.845703 z "
             style="color:#000000;font-style:normal;font-variant:normal;font-weight:normal;font-stretch:normal;font-size:26.45830000000000126px;line-height:1.25;font-family:Alegreya;-inkscape-font-specification:'Alegreya, Normal';font-variant-ligatures:normal;font-variant-position:normal;font-variant-caps:normal;font-variant-numeric:normal;font-variant-alternates:normal;font-variant-east-asian:normal;font-feature-settings:normal;font-variation-settings:normal;text-indent:0;text-align:start;text-decoration:none;text-decoration-line:none;text-decoration-style:solid;text-decoration-color:#000000;letter-spacing:normal;word-spacing:normal;text-transform:none;writing-mode:lr-tb;direction:ltr;text-orientation:mixed;dominant-baseline:auto;baseline-shift:baseline;text-anchor:start;white-space:normal;shape-padding:0;shape-margin:0;inline-size:0;clip-rule:nonzero;display:inline;overflow:visible;visibility:visible;isolation:auto;mix-blend-mode:normal;color-interpolation:sRGB;color-interpolation-filters:linearRGB;solid-color:#000000;solid-opacity:1;vector-effect:none;fill-opacity:1;fill-rule:nonzero;stroke-width:0.264583;stroke-linecap:butt;stroke-linejoin:miter;stroke-miterlimit:4;stroke-dasharray:none;stroke-dashoffset:0;stroke-opacity:1.0;color-rendering:auto;image-rendering:auto;shape-rendering:auto;text-rendering:auto;enable-background:accumulate;stop-color:#000000;stop-opacity:1;stroke:none;" />
        </g>
      </g>
    </g>
  </g>
</svg>
