<?xml version="1.0" encoding="UTF-8" standalone="no"?>
<svg
   xmlns:dc="http://purl.org/dc/elements/1.1/"
   xmlns:cc="http://creativecommons.org/ns#"
   xmlns:rdf="http://www.w3.org/1999/02/22-rdf-syntax-ns#"
   xmlns:svg="http://www.w3.org/2000/svg"
   xmlns="http://www.w3.org/2000/svg"
   xmlns:sodipodi="http://sodipodi.sourceforge.net/DTD/sodipodi-0.dtd"
   xmlns:inkscape="http://www.inkscape.org/namespaces/inkscape"
   width="79"
   height="88"
   viewBox="0 0 79 88"
   fill="none"
   version="1.1"
   id="svg70"
   sodipodi:docname="hero.svg"
   inkscape:version="1.0rc1 (09960d6, 2020-04-09)">
  <metadata
     id="metadata74">
    <rdf:RDF>
      <cc:Work
         rdf:about="">
        <dc:format>image/svg+xml</dc:format>
        <dc:type
           rdf:resource="http://purl.org/dc/dcmitype/StillImage" />
      </cc:Work>
    </rdf:RDF>
  </metadata>
  <sodipodi:namedview
     inkscape:document-rotation="0"
     pagecolor="#ffffff"
     bordercolor="#666666"
     borderopacity="1"
     objecttolerance="10"
     gridtolerance="10"
     guidetolerance="10"
     inkscape:pageopacity="0"
     inkscape:pageshadow="2"
     inkscape:window-width="1280"
     inkscape:window-height="742"
     id="namedview72"
     showgrid="false"
     inkscape:zoom="6.022974"
     inkscape:cx="49.792201"
     inkscape:cy="45.931062"
     inkscape:window-x="0"
     inkscape:window-y="23"
     inkscape:window-maximized="0"
     inkscape:current-layer="svg70" />
  <path
     d="M10 11C10 9.89543 10.8954 9 12 9H32C33.1046 9 34 9.89543 34 11C34 12.1046 33.1046 13 32 13H12C10.8954 13 10 12.1046 10 11Z"
     fill="#CFBCF2"
     id="path10" />
  <path
     sodipodi:nodetypes="ssssscss"
     inkscape:connector-curvature="0"
     d="m 10,19 c 0,-1.1046 0.8954,-2 2,-2 h 20 c 1.1046,0 2,0.8954 2,2 0,1.1046 -12.621426,-0.715533 -12.683334,0.387331 L 21.21866,21.133293 12,21 c -1.104485,-0.01597 -2,-0.8954 -2,-2 z"
     fill="#cfbcf2"
     id="path12" />
  <path
     sodipodi:nodetypes="ssscssscs"
     inkscape:connector-curvature="0"
     d="m 12,25 c -1.1046,0 -2,0.8954 -2,2 0,1.1046 0.8954,2 2,2 h 8.016869 L 18.70545,28.148392 c -0.926407,-0.60159 0.911834,0.05083 0.911834,-1.053769 0,-1.1046 -1.662419,-0.402962 -0.769899,-1.053769 L 20.274818,25 Z"
     fill="#cfbcf2"
     id="path14" />
  <path
     sodipodi:nodetypes="sscssss"
     inkscape:connector-curvature="0"
     d="m 10,35 c 0,-1.1046 0.8954,-2 2,-2 h 7.337638 c 0,0 -0.12902,0.706154 -0.12902,1.810754 0,1.1046 0.680264,2.251811 -1.243015,2.236558 L 12,37 c -1.104565,-0.0088 -2,-0.8954 -2,-2 z"
     fill="#CFBCF2"
     id="path16" />
  <path
     sodipodi:nodetypes="sssssscsssssscsscsssss"
     inkscape:connector-curvature="0"
     fill-rule="evenodd"
     clip-rule="evenodd"
     d="M 2,7 C 2,3.68629 4.68629,1 8,1 h 28 c 3.3137,0 6,2.68629 6,6 V 21.342336 L 25.085535,18.897468 c -3.279618,-0.474046 -1.092267,1.395014 -4.405967,1.395014 L 18.260195,45 H 8 C 4.68629,45 2,42.3137 2,39 Z M 8,5 h 28 c 1.1046,0 2,0.89543 2,2 V 20.43628 L 23.565142,18.189009 c -1.091452,-0.169922 -3.020778,1.734327 -4.125378,1.734327 L 18.922482,41 H 8 C 6.89543,41 6,40.1046 6,39 V 7 C 6,5.89543 6.89543,5 8,5 Z"
     fill="#cfbcf2"
     id="path18" />
  <g
     clip-path="url(#clip0)"
     id="g34">
    <rect
       x="15"
       y="15"
       width="44"
       height="44"
       rx="5"
       transform="rotate(4 15 15)"
       fill="url(#paint0_linear)"
       id="rect22"
       style="fill:none;fill-opacity:1" />
    <path
       d="M24.2083 26.6708C24.2854 25.5689 25.2411 24.7381 26.343 24.8151L46.2942 26.2103C47.3961 26.2873 48.2269 27.243 48.1499 28.3449C48.0728 29.4468 47.1171 30.2776 46.0152 30.2005L26.0639 28.8054C24.9621 28.7284 24.1313 27.7726 24.2083 26.6708Z"
       fill="#A081D9"
       id="path24" />
    <path
       d="M23.6503 34.6513C23.7273 33.5494 24.683 32.7186 25.7849 32.7957L45.7362 34.1908C46.8381 34.2678 47.6689 35.2236 47.5918 36.3254C47.5148 37.4273 46.559 38.2581 45.4572 38.181L25.5059 36.7859C24.404 36.7089 23.5732 35.7532 23.6503 34.6513Z"
       fill="#A081D9"
       id="path26" />
    <path
       sodipodi:nodetypes="ccccccccc"
       inkscape:connector-curvature="0"
       d="m 25.2269,40.7762 c -1.1019,-0.0771 -2.0576,0.7537 -2.1347,1.8556 -0.077,1.1019 0.7537,2.0576 1.8556,2.1346 l 12.232893,0.85545 0.722372,-0.877169 c 1.1019,0.077 0.286451,0.131775 0.363551,-0.970125 0.077,-1.1018 1.460136,-1.614713 0.358236,-1.691813 L 37.73582,41.650894 Z"
       fill="#a081d9"
       id="path28" />
    <path
       d="M22.5342 50.6123C22.6112 49.5104 23.5669 48.6796 24.6688 48.7567L32.6493 49.3147C33.7512 49.3918 34.582 50.3475 34.5049 51.4494C34.4279 52.5513 33.4722 53.382 32.3703 53.305L24.3898 52.7469C23.2879 52.6699 22.4571 51.7142 22.5342 50.6123Z"
       fill="#A081D9"
       id="path30" />
    <path
       sodipodi:nodetypes="cccccccccccccccccccccc"
       inkscape:connector-curvature="0"
       fill-rule="evenodd"
       clip-rule="evenodd"
       d="m 16.5068,22.1225 c 0.2312,-3.3057 3.0983,-5.798 6.404,-5.5669 l 27.9317,1.9532 c 3.3057,0.2311 5.798,3.0983 5.5669,6.4039 L 55.076361,43.97614 42.860452,39.684677 c -0.2312,3.3056 -3.0983,0.722964 -4.712221,3.583453 L 35.284726,61.528306 19.8415,60.4484 c -3.3057,-0.2311 -5.798,-3.0983 -5.5669,-6.4039 z m 6.1249,-1.5766 27.9318,1.9531 c 1.1019,0.0771 1.9327,1.0328 1.8556,2.1347 l -1.271158,18.178442 -9.0111,-2.823227 c -0.077,1.1019 -1.557703,1.46603 -2.659603,1.38903 L 36.042219,57.571565 20.1205,56.4582 c -1.1019,-0.0771 -1.9327,-1.0328 -1.8556,-2.1347 l 2.2322,-31.922 c 0.077,-1.1019 1.0327,-1.9327 2.1346,-1.8556 z"
       fill="#a081d9"
       id="path32" />
  </g>
  <g
     clip-path="url(#clip1)"
     id="g50">
    <path
       d="M42.4945 47.8387C42.7241 46.7583 43.7861 46.0686 44.8666 46.2983L64.4295 50.4565C65.51 50.6862 66.1996 51.7482 65.97 52.8286C65.7403 53.909 64.6783 54.5987 63.5979 54.3691L44.0349 50.2109C42.9545 49.9812 42.2648 48.9192 42.4945 47.8387Z"
       fill="#8662C7"
       id="path40" />
    <path
       d="M40.8312 55.6639C41.0608 54.5835 42.1228 53.8938 43.2033 54.1234L62.7662 58.2817C63.8467 58.5113 64.5364 59.5734 64.3067 60.6538C64.077 61.7342 63.015 62.4239 61.9346 62.1943L42.3716 58.036C41.2912 57.8064 40.6015 56.7443 40.8312 55.6639Z"
       fill="#8662C7"
       id="path42" />
    <path
       d="M41.54 61.9486C40.4596 61.719 39.3975 62.4087 39.1679 63.4891C38.9382 64.5695 39.6279 65.6316 40.7083 65.8612L60.2713 70.0194C61.3517 70.2491 62.4138 69.5594 62.6434 68.479C62.8731 67.3985 62.1834 66.3365 61.1029 66.1069L41.54 61.9486Z"
       fill="#8662C7"
       id="path44" />
    <path
       d="M37.5046 71.3143C37.7342 70.2338 38.7963 69.5442 39.8767 69.7738L47.7019 71.4371C48.7823 71.6668 49.472 72.7288 49.2423 73.8092C49.0127 74.8896 47.9507 75.5793 46.8702 75.3497L39.045 73.6864C37.9646 73.4567 37.2749 72.3947 37.5046 71.3143Z"
       fill="#8662C7"
       id="path46" />
    <path
       fill-rule="evenodd"
       clip-rule="evenodd"
       d="M35.5009 42.2629C36.1899 39.0216 39.376 36.9525 42.6173 37.6414L70.0054 43.463C73.2467 44.1519 75.3158 47.338 74.6268 50.5793L67.9736 81.88C67.2847 85.1213 64.0986 87.1904 60.8573 86.5015L33.4692 80.6799C30.2279 79.991 28.1588 76.8049 28.8477 73.5636L35.5009 42.2629ZM41.7856 41.554L69.1738 47.3756C70.2542 47.6052 70.9439 48.6672 70.7142 49.7477L64.0611 81.0484C63.8314 82.1288 62.7694 82.8185 61.6889 82.5889L34.3008 76.7673C33.2204 76.5377 32.5307 75.4757 32.7603 74.3952L39.4135 43.0945C39.6432 42.0141 40.7052 41.3244 41.7856 41.554Z"
       fill="#8662C7"
       id="path48" />
  </g>
  <defs
     id="defs68">
    <linearGradient
       id="paint0_linear"
       x1="14.9451"
       y1="43.6711"
       x2="-6.59656"
       y2="64.2961"
       gradientUnits="userSpaceOnUse">
      <stop
         stop-color="#014D40"
         id="stop52" />
      <stop
         offset="1"
         stop-color="#147D64"
         id="stop54" />
    </linearGradient>
    <linearGradient
       id="paint1_linear"
       x1="37.6951"
       y1="113.629"
       x2="57"
       y2="79"
       gradientUnits="userSpaceOnUse">
      <stop
         stop-color="#147D64"
         id="stop57" />
      <stop
         offset="1"
         stop-color="#014D40"
         id="stop59" />
    </linearGradient>
    <clipPath
       id="clip0">
      <rect
         x="15"
         y="15"
         width="44"
         height="44"
         rx="5"
         transform="rotate(4 15 15)"
         fill="white"
         id="rect62" />
    </clipPath>
    <clipPath
       id="clip1">
      <rect
         x="35"
         y="35"
         width="44"
         height="44"
         rx="5"
         transform="rotate(12 35 35)"
         fill="white"
         id="rect65" />
    </clipPath>
  </defs>
</svg>
